<?xml version="1.0" encoding="UTF-8"?>
<svg xmlns="http://www.w3.org/2000/svg" version="1.1" width="300" height="300" viewBox="0 0 300 300"><rect x="0" y="0" width="300" height="300" fill="#ffffff"/><g transform="scale(5.882)"><g transform="translate(1,1)"><path fill-rule="evenodd" d="M8 0L8 1L9 1L9 0ZM12 0L12 1L13 1L13 2L16 2L16 1L17 1L17 0L15 0L15 1L13 1L13 0ZM20 0L20 2L21 2L21 4L19 4L19 1L18 1L18 2L17 2L17 3L16 3L16 5L17 5L17 6L16 6L16 7L15 7L15 3L14 3L14 4L12 4L12 2L11 2L11 1L10 1L10 2L9 2L9 3L10 3L10 4L9 4L9 5L10 5L10 7L11 7L11 4L12 4L12 7L13 7L13 9L14 9L14 7L15 7L15 10L16 10L16 11L14 11L14 10L12 10L12 9L11 9L11 8L9 8L9 6L8 6L8 8L9 8L9 9L7 9L7 8L6 8L6 9L5 9L5 8L3 8L3 9L2 9L2 8L0 8L0 14L1 14L1 17L2 17L2 19L1 19L1 20L0 20L0 22L2 22L2 23L3 23L3 22L4 22L4 24L0 24L0 25L2 25L2 26L1 26L1 27L3 27L3 25L4 25L4 28L5 28L5 30L4 30L4 29L3 29L3 28L0 28L0 30L1 30L1 29L3 29L3 30L4 30L4 32L2 32L2 31L1 31L1 32L0 32L0 38L1 38L1 40L0 40L0 41L3 41L3 40L4 40L4 39L2 39L2 38L3 38L3 36L4 36L4 37L5 37L5 39L8 39L8 38L9 38L9 37L8 37L8 36L10 36L10 40L9 40L9 41L8 41L8 40L6 40L6 41L8 41L8 42L9 42L9 44L8 44L8 46L9 46L9 45L10 45L10 43L12 43L12 44L11 44L11 45L12 45L12 47L10 47L10 48L14 48L14 49L16 49L16 48L17 48L17 47L16 47L16 48L14 48L14 47L15 47L15 44L16 44L16 46L17 46L17 45L18 45L18 47L19 47L19 48L18 48L18 49L20 49L20 47L21 47L21 42L20 42L20 41L21 41L21 40L22 40L22 45L26 45L26 46L22 46L22 47L23 47L23 48L21 48L21 49L24 49L24 47L25 47L25 48L26 48L26 46L27 46L27 42L29 42L29 44L28 44L28 47L31 47L31 49L35 49L35 48L36 48L36 49L37 49L37 48L36 48L36 47L37 47L37 46L38 46L38 47L40 47L40 48L39 48L39 49L42 49L42 48L43 48L43 49L46 49L46 48L48 48L48 49L49 49L49 47L48 47L48 46L47 46L47 45L46 45L46 44L45 44L45 43L47 43L47 40L48 40L48 39L49 39L49 34L48 34L48 32L47 32L47 34L48 34L48 36L47 36L47 35L45 35L45 33L46 33L46 31L47 31L47 30L44 30L44 29L43 29L43 28L41 28L41 27L44 27L44 28L45 28L45 29L47 29L47 28L48 28L48 29L49 29L49 26L47 26L47 27L46 27L46 26L45 26L45 25L46 25L46 24L47 24L47 22L48 22L48 25L49 25L49 22L48 22L48 21L49 21L49 18L48 18L48 17L49 17L49 16L48 16L48 15L49 15L49 14L47 14L47 12L48 12L48 13L49 13L49 8L48 8L48 10L47 10L47 9L46 9L46 10L47 10L47 11L44 11L44 10L43 10L43 8L42 8L42 10L43 10L43 11L44 11L44 13L41 13L41 14L40 14L40 12L41 12L41 11L40 11L40 10L41 10L41 9L40 9L40 10L39 10L39 5L38 5L38 2L39 2L39 4L40 4L40 3L41 3L41 0L40 0L40 1L38 1L38 2L37 2L37 3L35 3L35 2L36 2L36 1L35 1L35 0L34 0L34 1L33 1L33 0L32 0L32 1L33 1L33 2L32 2L32 5L33 5L33 6L32 6L32 7L31 7L31 6L30 6L30 8L31 8L31 9L30 9L30 10L31 10L31 11L28 11L28 10L29 10L29 8L27 8L27 5L28 5L28 4L29 4L29 5L31 5L31 4L30 4L30 3L31 3L31 2L30 2L30 1L31 1L31 0L29 0L29 1L28 1L28 0L26 0L26 1L25 1L25 0L24 0L24 1L23 1L23 0L22 0L22 2L21 2L21 0ZM24 1L24 3L23 3L23 4L24 4L24 3L26 3L26 4L27 4L27 3L26 3L26 2L25 2L25 1ZM27 1L27 2L28 2L28 3L29 3L29 2L28 2L28 1ZM10 2L10 3L11 3L11 2ZM33 2L33 3L34 3L34 6L33 6L33 7L32 7L32 10L33 10L33 12L34 12L34 13L32 13L32 14L30 14L30 12L29 12L29 14L28 14L28 11L27 11L27 10L26 10L26 12L25 12L25 11L24 11L24 12L22 12L22 13L21 13L21 12L20 12L20 13L18 13L18 12L19 12L19 11L20 11L20 10L19 10L19 9L18 9L18 8L16 8L16 9L17 9L17 10L19 10L19 11L18 11L18 12L17 12L17 11L16 11L16 12L14 12L14 11L12 11L12 12L11 12L11 14L10 14L10 17L9 17L9 15L8 15L8 14L7 14L7 13L5 13L5 12L4 12L4 11L6 11L6 12L8 12L8 13L9 13L9 11L10 11L10 10L11 10L11 9L10 9L10 10L8 10L8 11L6 11L6 10L7 10L7 9L6 9L6 10L5 10L5 9L4 9L4 11L3 11L3 10L2 10L2 9L1 9L1 10L2 10L2 13L1 13L1 14L2 14L2 13L3 13L3 12L4 12L4 13L5 13L5 14L4 14L4 15L2 15L2 17L4 17L4 18L3 18L3 19L4 19L4 20L2 20L2 22L3 22L3 21L4 21L4 20L5 20L5 21L6 21L6 22L7 22L7 21L6 21L6 20L10 20L10 21L11 21L11 22L13 22L13 23L12 23L12 24L13 24L13 25L12 25L12 26L13 26L13 27L12 27L12 28L11 28L11 27L10 27L10 28L9 28L9 27L8 27L8 28L9 28L9 29L6 29L6 30L5 30L5 34L4 34L4 33L3 33L3 35L2 35L2 36L1 36L1 37L2 37L2 36L3 36L3 35L5 35L5 37L6 37L6 38L8 38L8 37L6 37L6 36L7 36L7 35L8 35L8 33L9 33L9 35L11 35L11 34L12 34L12 35L14 35L14 36L18 36L18 35L14 35L14 34L15 34L15 33L16 33L16 32L17 32L17 31L18 31L18 32L19 32L19 30L17 30L17 31L16 31L16 29L20 29L20 30L21 30L21 32L22 32L22 31L23 31L23 32L24 32L24 31L26 31L26 32L25 32L25 33L27 33L27 31L26 31L26 30L27 30L27 29L30 29L30 28L31 28L31 30L28 30L28 31L29 31L29 33L28 33L28 35L27 35L27 36L22 36L22 34L23 34L23 33L21 33L21 34L19 34L19 33L17 33L17 34L19 34L19 35L20 35L20 37L21 37L21 39L19 39L19 40L21 40L21 39L24 39L24 38L22 38L22 37L28 37L28 35L29 35L29 33L31 33L31 34L30 34L30 36L31 36L31 34L33 34L33 37L32 37L32 40L31 40L31 39L30 39L30 38L29 38L29 39L28 39L28 38L26 38L26 40L27 40L27 41L29 41L29 42L30 42L30 43L31 43L31 44L29 44L29 45L31 45L31 44L32 44L32 45L33 45L33 46L32 46L32 47L33 47L33 48L34 48L34 47L33 47L33 46L34 46L34 45L35 45L35 46L37 46L37 45L35 45L35 44L37 44L37 42L36 42L36 43L35 43L35 42L34 42L34 41L33 41L33 43L31 43L31 42L32 42L32 40L34 40L34 39L33 39L33 37L34 37L34 38L35 38L35 37L36 37L36 39L35 39L35 41L36 41L36 40L37 40L37 41L38 41L38 42L40 42L40 41L39 41L39 40L41 40L41 39L42 39L42 40L45 40L45 39L46 39L46 38L48 38L48 37L47 37L47 36L44 36L44 37L46 37L46 38L45 38L45 39L44 39L44 38L43 38L43 37L40 37L40 38L41 38L41 39L39 39L39 38L38 38L38 39L37 39L37 37L36 37L36 36L37 36L37 35L38 35L38 33L39 33L39 32L37 32L37 29L36 29L36 28L39 28L39 27L38 27L38 26L37 26L37 25L36 25L36 24L38 24L38 25L39 25L39 24L40 24L40 23L39 23L39 22L37 22L37 21L39 21L39 19L40 19L40 16L39 16L39 15L40 15L40 14L39 14L39 15L38 15L38 16L39 16L39 17L35 17L35 16L37 16L37 14L35 14L35 13L36 13L36 12L37 12L37 13L39 13L39 12L40 12L40 11L39 11L39 10L38 10L38 5L37 5L37 4L36 4L36 5L35 5L35 3L34 3L34 2ZM17 4L17 5L18 5L18 6L17 6L17 7L18 7L18 6L19 6L19 7L20 7L20 8L22 8L22 5L21 5L21 7L20 7L20 5L19 5L19 4ZM13 5L13 7L14 7L14 5ZM23 5L23 8L26 8L26 5ZM24 6L24 7L25 7L25 6ZM28 6L28 7L29 7L29 6ZM34 6L34 7L33 7L33 8L34 8L34 9L33 9L33 10L34 10L34 11L35 11L35 12L36 12L36 11L35 11L35 10L37 10L37 8L34 8L34 7L35 7L35 6ZM36 6L36 7L37 7L37 6ZM40 6L40 7L41 7L41 6ZM21 9L21 10L22 10L22 9ZM23 9L23 10L24 10L24 9ZM38 11L38 12L39 12L39 11ZM12 12L12 13L13 13L13 14L11 14L11 15L12 15L12 16L13 16L13 17L12 17L12 19L11 19L11 17L10 17L10 19L11 19L11 21L12 21L12 19L14 19L14 20L13 20L13 22L15 22L15 23L13 23L13 24L14 24L14 25L13 25L13 26L14 26L14 27L16 27L16 28L17 28L17 27L18 27L18 26L17 26L17 27L16 27L16 23L17 23L17 24L18 24L18 25L20 25L20 26L22 26L22 27L20 27L20 29L22 29L22 30L26 30L26 29L27 29L27 28L30 28L30 27L31 27L31 28L32 28L32 29L33 29L33 30L31 30L31 31L30 31L30 32L31 32L31 33L32 33L32 31L35 31L35 27L34 27L34 26L33 26L33 25L34 25L34 24L33 24L33 23L34 23L34 22L35 22L35 24L36 24L36 21L37 21L37 20L33 20L33 22L32 22L32 23L31 23L31 25L30 25L30 22L31 22L31 21L32 21L32 20L31 20L31 19L33 19L33 18L31 18L31 17L30 17L30 16L32 16L32 17L34 17L34 18L35 18L35 19L36 19L36 18L35 18L35 17L34 17L34 16L35 16L35 15L34 15L34 14L33 14L33 16L32 16L32 15L30 15L30 14L29 14L29 15L30 15L30 16L29 16L29 17L28 17L28 14L27 14L27 13L26 13L26 15L25 15L25 12L24 12L24 13L22 13L22 14L21 14L21 13L20 13L20 14L18 14L18 13L17 13L17 12L16 12L16 13L17 13L17 14L16 14L16 16L15 16L15 15L14 15L14 14L15 14L15 13L13 13L13 12ZM45 12L45 14L46 14L46 15L47 15L47 14L46 14L46 12ZM5 14L5 15L4 15L4 16L5 16L5 20L6 20L6 19L8 19L8 18L6 18L6 17L8 17L8 16L6 16L6 15L7 15L7 14ZM17 14L17 17L18 17L18 14ZM22 14L22 15L23 15L23 16L22 16L22 17L21 17L21 15L20 15L20 16L19 16L19 17L20 17L20 18L21 18L21 19L17 19L17 18L15 18L15 17L13 17L13 18L15 18L15 19L17 19L17 21L16 21L16 22L17 22L17 23L19 23L19 24L20 24L20 25L21 25L21 24L22 24L22 22L23 22L23 20L25 20L25 21L24 21L24 22L25 22L25 21L27 21L27 22L28 22L28 23L27 23L27 24L29 24L29 22L30 22L30 21L27 21L27 20L30 20L30 19L27 19L27 18L28 18L28 17L26 17L26 16L25 16L25 15L23 15L23 14ZM42 14L42 15L41 15L41 16L42 16L42 17L43 17L43 16L45 16L45 15L43 15L43 14ZM13 15L13 16L14 16L14 15ZM23 16L23 17L22 17L22 19L21 19L21 20L18 20L18 22L19 22L19 23L21 23L21 22L22 22L22 19L24 19L24 17L25 17L25 19L26 19L26 20L27 20L27 19L26 19L26 17L25 17L25 16ZM46 16L46 17L47 17L47 16ZM44 17L44 19L45 19L45 17ZM42 18L42 19L43 19L43 18ZM47 18L47 19L46 19L46 20L43 20L43 22L44 22L44 21L45 21L45 23L46 23L46 21L48 21L48 20L47 20L47 19L48 19L48 18ZM14 20L14 21L15 21L15 20ZM40 20L40 21L42 21L42 20ZM9 22L9 24L10 24L10 25L9 25L9 26L10 26L10 25L11 25L11 23L10 23L10 22ZM5 23L5 26L8 26L8 23ZM23 23L23 26L26 26L26 23ZM41 23L41 26L44 26L44 23ZM6 24L6 25L7 25L7 24ZM24 24L24 25L25 25L25 24ZM42 24L42 25L43 25L43 24ZM14 25L14 26L15 26L15 25ZM27 25L27 26L28 26L28 27L29 27L29 26L28 26L28 25ZM31 25L31 27L32 27L32 28L34 28L34 27L32 27L32 25ZM35 25L35 26L36 26L36 27L37 27L37 26L36 26L36 25ZM6 27L6 28L7 28L7 27ZM23 27L23 29L25 29L25 28L27 28L27 27L25 27L25 28L24 28L24 27ZM10 28L10 29L9 29L9 30L6 30L6 31L8 31L8 32L6 32L6 33L8 33L8 32L9 32L9 33L12 33L12 34L13 34L13 33L12 33L12 31L11 31L11 30L10 30L10 29L11 29L11 28ZM12 28L12 30L13 30L13 31L14 31L14 32L15 32L15 30L13 30L13 29L14 29L14 28ZM40 28L40 30L41 30L41 28ZM38 29L38 31L39 31L39 29ZM43 30L43 31L42 31L42 32L45 32L45 31L44 31L44 30ZM48 30L48 31L49 31L49 30ZM9 31L9 32L10 32L10 31ZM33 32L33 33L34 33L34 35L35 35L35 36L36 36L36 35L37 35L37 32ZM40 32L40 33L41 33L41 32ZM1 33L1 34L2 34L2 33ZM43 33L43 34L44 34L44 33ZM5 34L5 35L7 35L7 34ZM35 34L35 35L36 35L36 34ZM41 34L41 35L42 35L42 36L43 36L43 35L42 35L42 34ZM21 36L21 37L22 37L22 36ZM38 36L38 37L39 37L39 36ZM12 37L12 38L11 38L11 39L12 39L12 41L13 41L13 42L12 42L12 43L14 43L14 44L13 44L13 47L14 47L14 44L15 44L15 43L16 43L16 44L18 44L18 45L19 45L19 46L20 46L20 44L19 44L19 41L18 41L18 39L17 39L17 38L16 38L16 41L15 41L15 42L14 42L14 41L13 41L13 39L14 39L14 37ZM42 38L42 39L43 39L43 38ZM27 39L27 40L28 40L28 39ZM29 39L29 40L30 40L30 39ZM10 41L10 42L11 42L11 41ZM16 41L16 43L17 43L17 42L18 42L18 41ZM23 41L23 44L26 44L26 41ZM30 41L30 42L31 42L31 41ZM41 41L41 44L44 44L44 41ZM45 41L45 42L46 42L46 41ZM48 41L48 45L49 45L49 41ZM24 42L24 43L25 43L25 42ZM42 42L42 43L43 43L43 42ZM33 43L33 44L34 44L34 43ZM38 43L38 44L40 44L40 43ZM40 45L40 47L41 47L41 45ZM42 45L42 46L43 46L43 48L45 48L45 47L46 47L46 45ZM44 46L44 47L45 47L45 46ZM8 47L8 49L9 49L9 47ZM28 48L28 49L29 49L29 48ZM0 0L0 7L7 7L7 0ZM1 1L1 6L6 6L6 1ZM2 2L2 5L5 5L5 2ZM42 0L42 7L49 7L49 0ZM43 1L43 6L48 6L48 1ZM44 2L44 5L47 5L47 2ZM0 42L0 49L7 49L7 42ZM1 43L1 48L6 48L6 43ZM2 44L2 47L5 47L5 44Z" fill="#000000"/></g></g></svg>
