<?xml version="1.0" encoding="UTF-8"?>
<svg xmlns="http://www.w3.org/2000/svg" version="1.1" width="300" height="300" viewBox="0 0 300 300"><rect x="0" y="0" width="300" height="300" fill="#ffffff"/><g transform="scale(5.882)"><g transform="translate(1,1)"><path fill-rule="evenodd" d="M8 0L8 1L10 1L10 2L8 2L8 5L9 5L9 3L12 3L12 4L13 4L13 5L14 5L14 7L13 7L13 6L12 6L12 7L11 7L11 6L10 6L10 7L9 7L9 6L8 6L8 7L9 7L9 8L8 8L8 9L11 9L11 8L14 8L14 7L15 7L15 6L16 6L16 7L17 7L17 5L19 5L19 4L20 4L20 5L21 5L21 6L20 6L20 7L19 7L19 6L18 6L18 8L17 8L17 9L18 9L18 8L19 8L19 11L21 11L21 12L20 12L20 13L19 13L19 12L17 12L17 11L18 11L18 10L16 10L16 12L15 12L15 9L14 9L14 12L13 12L13 11L11 11L11 10L6 10L6 9L7 9L7 8L6 8L6 9L5 9L5 10L6 10L6 11L3 11L3 10L4 10L4 8L0 8L0 9L2 9L2 10L0 10L0 15L1 15L1 11L2 11L2 12L4 12L4 13L3 13L3 14L5 14L5 13L8 13L8 14L6 14L6 15L5 15L5 17L4 17L4 15L2 15L2 16L3 16L3 17L2 17L2 18L4 18L4 19L3 19L3 20L1 20L1 18L0 18L0 24L1 24L1 25L2 25L2 27L1 27L1 26L0 26L0 30L1 30L1 28L2 28L2 29L3 29L3 30L4 30L4 31L1 31L1 32L0 32L0 33L1 33L1 34L0 34L0 37L1 37L1 40L0 40L0 41L3 41L3 40L4 40L4 39L2 39L2 36L3 36L3 35L1 35L1 34L2 34L2 33L3 33L3 34L6 34L6 35L5 35L5 36L4 36L4 37L5 37L5 39L7 39L7 38L6 38L6 37L7 37L7 36L8 36L8 35L7 35L7 34L6 34L6 33L10 33L10 34L9 34L9 35L10 35L10 36L9 36L9 37L11 37L11 36L12 36L12 39L10 39L10 38L9 38L9 39L8 39L8 40L6 40L6 41L8 41L8 42L9 42L9 45L8 45L8 49L9 49L9 47L10 47L10 46L11 46L11 45L12 45L12 46L13 46L13 49L14 49L14 47L15 47L15 46L16 46L16 48L15 48L15 49L19 49L19 48L20 48L20 49L21 49L21 48L20 48L20 47L21 47L21 46L19 46L19 47L18 47L18 44L17 44L17 42L18 42L18 43L19 43L19 45L20 45L20 43L22 43L22 46L23 46L23 45L24 45L24 46L25 46L25 48L24 48L24 49L25 49L25 48L26 48L26 47L27 47L27 49L28 49L28 47L27 47L27 46L25 46L25 45L29 45L29 47L30 47L30 46L31 46L31 47L32 47L32 48L29 48L29 49L32 49L32 48L35 48L35 47L36 47L36 49L41 49L41 47L42 47L42 45L44 45L44 47L43 47L43 48L44 48L44 47L46 47L46 48L45 48L45 49L46 49L46 48L47 48L47 49L49 49L49 48L47 48L47 47L49 47L49 46L48 46L48 45L49 45L49 39L48 39L48 37L49 37L49 36L47 36L47 35L46 35L46 34L47 34L47 33L49 33L49 29L48 29L48 28L49 28L49 27L48 27L48 26L49 26L49 24L48 24L48 23L47 23L47 22L48 22L48 21L47 21L47 22L46 22L46 18L47 18L47 20L49 20L49 17L48 17L48 14L49 14L49 12L47 12L47 11L48 11L48 10L47 10L47 11L46 11L46 9L47 9L47 8L44 8L44 9L42 9L42 8L41 8L41 10L40 10L40 8L39 8L39 5L38 5L38 2L39 2L39 4L40 4L40 3L41 3L41 0L40 0L40 1L38 1L38 0L36 0L36 1L34 1L34 2L33 2L33 0L32 0L32 3L34 3L34 4L35 4L35 6L34 6L34 5L33 5L33 4L32 4L32 5L30 5L30 2L31 2L31 0L30 0L30 2L29 2L29 1L27 1L27 3L28 3L28 2L29 2L29 4L25 4L25 2L26 2L26 0L23 0L23 1L22 1L22 0L21 0L21 1L20 1L20 0L19 0L19 1L15 1L15 0L14 0L14 1L15 1L15 2L14 2L14 3L13 3L13 2L12 2L12 1L13 1L13 0L12 0L12 1L11 1L11 0ZM21 1L21 2L20 2L20 3L21 3L21 5L22 5L22 1ZM24 1L24 2L25 2L25 1ZM16 2L16 3L17 3L17 4L16 4L16 5L17 5L17 4L18 4L18 2ZM35 2L35 3L36 3L36 2ZM14 3L14 5L15 5L15 3ZM10 4L10 5L11 5L11 4ZM23 5L23 8L26 8L26 5ZM28 5L28 6L27 6L27 8L28 8L28 6L29 6L29 10L30 10L30 8L31 8L31 7L32 7L32 9L31 9L31 11L27 11L27 10L28 10L28 9L26 9L26 10L23 10L23 9L22 9L22 10L21 10L21 9L20 9L20 10L21 10L21 11L23 11L23 12L22 12L22 14L19 14L19 13L18 13L18 14L17 14L17 13L16 13L16 17L17 17L17 20L16 20L16 19L14 19L14 20L10 20L10 19L9 19L9 18L10 18L10 16L12 16L12 17L11 17L11 19L12 19L12 18L14 18L14 16L15 16L15 15L14 15L14 14L15 14L15 12L14 12L14 13L13 13L13 12L12 12L12 14L10 14L10 13L11 13L11 11L10 11L10 12L8 12L8 13L9 13L9 14L10 14L10 16L9 16L9 15L6 15L6 16L7 16L7 17L5 17L5 18L7 18L7 19L6 19L6 20L8 20L8 19L9 19L9 21L5 21L5 19L4 19L4 22L9 22L9 23L11 23L11 22L13 22L13 23L15 23L15 24L13 24L13 25L12 25L12 24L10 24L10 26L9 26L9 27L5 27L5 28L4 28L4 27L2 27L2 28L4 28L4 30L7 30L7 31L5 31L5 32L3 32L3 33L5 33L5 32L9 32L9 31L8 31L8 28L9 28L9 27L10 27L10 26L12 26L12 27L13 27L13 28L11 28L11 29L9 29L9 30L11 30L11 32L10 32L10 33L11 33L11 32L12 32L12 34L13 34L13 33L14 33L14 35L13 35L13 38L14 38L14 39L16 39L16 40L17 40L17 41L19 41L19 42L22 42L22 40L26 40L26 39L27 39L27 37L28 37L28 38L30 38L30 40L29 40L29 39L28 39L28 40L27 40L27 41L29 41L29 42L27 42L27 44L31 44L31 41L32 41L32 47L34 47L34 46L36 46L36 47L37 47L37 48L39 48L39 47L38 47L38 46L39 46L39 45L40 45L40 43L37 43L37 41L38 41L38 42L40 42L40 40L39 40L39 38L38 38L38 35L40 35L40 34L41 34L41 36L40 36L40 37L41 37L41 38L42 38L42 39L41 39L41 40L44 40L44 39L43 39L43 37L46 37L46 36L44 36L44 35L43 35L43 34L45 34L45 33L47 33L47 31L46 31L46 30L47 30L47 29L46 29L46 28L47 28L47 26L48 26L48 25L45 25L45 27L40 27L40 26L39 26L39 29L37 29L37 28L38 28L38 27L37 27L37 26L38 26L38 24L40 24L40 22L41 22L41 21L43 21L43 22L45 22L45 23L46 23L46 22L45 22L45 20L44 20L44 18L45 18L45 17L44 17L44 18L43 18L43 17L42 17L42 15L37 15L37 16L36 16L36 14L38 14L38 13L33 13L33 12L36 12L36 11L37 11L37 10L38 10L38 11L39 11L39 12L40 12L40 10L39 10L39 8L38 8L38 6L37 6L37 8L36 8L36 11L34 11L34 10L35 10L35 9L33 9L33 7L34 7L34 8L35 8L35 7L36 7L36 6L35 6L35 7L34 7L34 6L33 6L33 5L32 5L32 6L31 6L31 7L30 7L30 6L29 6L29 5ZM21 6L21 7L22 7L22 6ZM24 6L24 7L25 7L25 6ZM32 6L32 7L33 7L33 6ZM40 6L40 7L41 7L41 6ZM10 7L10 8L11 8L11 7ZM37 8L37 9L38 9L38 8ZM48 8L48 9L49 9L49 8ZM12 9L12 10L13 10L13 9ZM44 9L44 10L45 10L45 9ZM32 10L32 12L33 12L33 10ZM6 11L6 12L7 12L7 11ZM24 11L24 12L23 12L23 14L22 14L22 15L24 15L24 13L26 13L26 15L25 15L25 17L27 17L27 18L26 18L26 19L27 19L27 18L28 18L28 19L29 19L29 20L25 20L25 18L24 18L24 17L23 17L23 16L21 16L21 15L19 15L19 14L18 14L18 16L17 16L17 17L18 17L18 19L19 19L19 17L18 17L18 16L21 16L21 18L20 18L20 20L19 20L19 24L17 24L17 25L19 25L19 26L16 26L16 27L20 27L20 26L21 26L21 27L22 27L22 28L21 28L21 29L23 29L23 30L22 30L22 31L21 31L21 30L20 30L20 31L19 31L19 29L18 29L18 31L17 31L17 28L16 28L16 29L15 29L15 26L14 26L14 28L13 28L13 30L12 30L12 29L11 29L11 30L12 30L12 32L13 32L13 30L16 30L16 31L14 31L14 32L15 32L15 33L16 33L16 31L17 31L17 33L18 33L18 32L19 32L19 33L21 33L21 35L20 35L20 34L16 34L16 36L17 36L17 38L16 38L16 37L14 37L14 38L16 38L16 39L17 39L17 40L19 40L19 39L20 39L20 40L22 40L22 38L23 38L23 35L22 35L22 33L23 33L23 34L24 34L24 37L25 37L25 33L26 33L26 31L25 31L25 32L22 32L22 31L24 31L24 29L25 29L25 30L26 30L26 28L28 28L28 27L29 27L29 28L30 28L30 27L31 27L31 28L32 28L32 29L31 29L31 30L30 30L30 29L28 29L28 30L29 30L29 31L31 31L31 30L32 30L32 29L33 29L33 33L32 33L32 32L28 32L28 31L27 31L27 34L26 34L26 37L27 37L27 34L28 34L28 36L30 36L30 37L31 37L31 36L30 36L30 35L31 35L31 33L32 33L32 34L33 34L33 33L35 33L35 34L34 34L34 35L36 35L36 36L34 36L34 37L33 37L33 38L34 38L34 40L33 40L33 39L32 39L32 38L31 38L31 40L32 40L32 41L33 41L33 42L34 42L34 43L33 43L33 46L34 46L34 43L35 43L35 45L36 45L36 44L37 44L37 46L38 46L38 45L39 45L39 44L37 44L37 43L36 43L36 39L38 39L38 38L37 38L37 35L38 35L38 34L37 34L37 33L35 33L35 31L36 31L36 32L38 32L38 31L39 31L39 32L41 32L41 34L43 34L43 33L45 33L45 32L46 32L46 31L45 31L45 30L46 30L46 29L45 29L45 30L43 30L43 28L41 28L41 29L39 29L39 30L38 30L38 31L36 31L36 30L37 30L37 29L35 29L35 28L34 28L34 27L32 27L32 26L33 26L33 25L32 25L32 26L30 26L30 25L31 25L31 24L30 24L30 25L28 25L28 27L27 27L27 22L28 22L28 23L31 23L31 21L32 21L32 24L33 24L33 21L32 21L32 19L31 19L31 20L30 20L30 18L28 18L28 16L30 16L30 15L31 15L31 16L32 16L32 17L31 17L31 18L33 18L33 19L35 19L35 20L34 20L34 21L35 21L35 23L37 23L37 22L38 22L38 21L37 21L37 22L36 22L36 20L38 20L38 19L40 19L40 18L42 18L42 17L41 17L41 16L39 16L39 17L40 17L40 18L38 18L38 17L36 17L36 18L37 18L37 19L35 19L35 16L34 16L34 15L31 15L31 14L30 14L30 13L31 13L31 12L29 12L29 15L27 15L27 12L26 12L26 11ZM42 12L42 13L40 13L40 14L44 14L44 13L45 13L45 16L46 16L46 17L47 17L47 18L48 18L48 17L47 17L47 15L46 15L46 14L47 14L47 12L44 12L44 13L43 13L43 12ZM13 15L13 16L14 16L14 15ZM26 15L26 16L27 16L27 15ZM43 15L43 16L44 16L44 15ZM8 16L8 17L7 17L7 18L8 18L8 17L9 17L9 16ZM22 17L22 20L21 20L21 21L20 21L20 22L21 22L21 21L22 21L22 22L23 22L23 20L24 20L24 21L25 21L25 22L27 22L27 21L25 21L25 20L24 20L24 19L23 19L23 17ZM17 20L17 21L18 21L18 20ZM29 20L29 22L30 22L30 20ZM2 21L2 23L3 23L3 24L2 24L2 25L3 25L3 26L4 26L4 23L3 23L3 21ZM10 21L10 22L11 22L11 21ZM14 21L14 22L15 22L15 23L16 23L16 22L15 22L15 21ZM17 22L17 23L18 23L18 22ZM5 23L5 26L8 26L8 23ZM20 23L20 24L19 24L19 25L21 25L21 26L22 26L22 25L21 25L21 23ZM23 23L23 26L26 26L26 23ZM41 23L41 26L44 26L44 23ZM6 24L6 25L7 25L7 24ZM15 24L15 25L16 25L16 24ZM24 24L24 25L25 25L25 24ZM34 24L34 25L35 25L35 27L36 27L36 25L37 25L37 24L36 24L36 25L35 25L35 24ZM42 24L42 25L43 25L43 24ZM25 27L25 28L26 28L26 27ZM6 28L6 29L7 29L7 28ZM23 28L23 29L24 29L24 28ZM33 28L33 29L34 29L34 28ZM34 30L34 31L35 31L35 30ZM39 30L39 31L42 31L42 30ZM20 31L20 32L21 32L21 31ZM43 31L43 32L42 32L42 33L43 33L43 32L44 32L44 31ZM1 32L1 33L2 33L2 32ZM29 33L29 34L30 34L30 33ZM36 34L36 35L37 35L37 34ZM6 35L6 36L7 36L7 35ZM14 35L14 36L15 36L15 35ZM17 35L17 36L18 36L18 35ZM32 35L32 36L33 36L33 35ZM42 35L42 36L41 36L41 37L42 37L42 36L43 36L43 35ZM19 36L19 37L21 37L21 38L22 38L22 37L21 37L21 36ZM34 37L34 38L36 38L36 37ZM18 38L18 39L19 39L19 38ZM24 38L24 39L26 39L26 38ZM46 38L46 39L45 39L45 42L46 42L46 43L45 43L45 46L46 46L46 47L47 47L47 46L46 46L46 45L47 45L47 42L48 42L48 40L47 40L47 38ZM12 39L12 40L13 40L13 39ZM8 40L8 41L9 41L9 42L10 42L10 40ZM38 40L38 41L39 41L39 40ZM46 40L46 42L47 42L47 40ZM12 41L12 42L14 42L14 41ZM23 41L23 44L26 44L26 41ZM41 41L41 44L44 44L44 41ZM15 42L15 43L12 43L12 45L13 45L13 46L15 46L15 45L16 45L16 46L17 46L17 44L15 44L15 43L16 43L16 42ZM24 42L24 43L25 43L25 42ZM29 42L29 43L30 43L30 42ZM42 42L42 43L43 43L43 42ZM10 43L10 45L9 45L9 46L10 46L10 45L11 45L11 43ZM14 44L14 45L15 45L15 44ZM40 46L40 47L41 47L41 46ZM10 48L10 49L11 49L11 48ZM0 0L0 7L7 7L7 0ZM1 1L1 6L6 6L6 1ZM2 2L2 5L5 5L5 2ZM42 0L42 7L49 7L49 0ZM43 1L43 6L48 6L48 1ZM44 2L44 5L47 5L47 2ZM0 42L0 49L7 49L7 42ZM1 43L1 48L6 48L6 43ZM2 44L2 47L5 47L5 44Z" fill="#000000"/></g></g></svg>
