<?xml version="1.0" encoding="UTF-8"?>
<svg xmlns="http://www.w3.org/2000/svg" version="1.1" width="300" height="300" viewBox="0 0 300 300"><rect x="0" y="0" width="300" height="300" fill="#ffffff"/><g transform="scale(5.882)"><g transform="translate(1,1)"><path fill-rule="evenodd" d="M9 0L9 2L8 2L8 3L9 3L9 4L10 4L10 2L13 2L13 4L12 4L12 5L10 5L10 8L9 8L9 6L8 6L8 8L4 8L4 9L3 9L3 8L0 8L0 9L3 9L3 12L2 12L2 11L1 11L1 10L0 10L0 12L2 12L2 13L3 13L3 12L5 12L5 13L7 13L7 14L6 14L6 15L7 15L7 16L5 16L5 14L4 14L4 16L2 16L2 15L1 15L1 16L0 16L0 17L1 17L1 16L2 16L2 18L0 18L0 20L1 20L1 21L0 21L0 22L1 22L1 21L2 21L2 22L3 22L3 20L4 20L4 21L5 21L5 22L4 22L4 26L3 26L3 29L1 29L1 31L2 31L2 30L3 30L3 29L4 29L4 27L7 27L7 28L5 28L5 30L4 30L4 32L3 32L3 33L4 33L4 32L6 32L6 33L5 33L5 36L6 36L6 37L7 37L7 38L5 38L5 39L7 39L7 40L6 40L6 41L7 41L7 40L8 40L8 45L9 45L9 41L10 41L10 43L11 43L11 45L10 45L10 46L11 46L11 48L10 48L10 49L11 49L11 48L12 48L12 47L13 47L13 48L14 48L14 49L15 49L15 48L16 48L16 49L17 49L17 47L19 47L19 48L18 48L18 49L23 49L23 48L24 48L24 49L26 49L26 48L24 48L24 47L25 47L25 46L23 46L23 45L28 45L28 48L27 48L27 49L31 49L31 47L32 47L32 49L33 49L33 48L34 48L34 47L32 47L32 46L29 46L29 45L31 45L31 44L27 44L27 39L28 39L28 43L29 43L29 41L30 41L30 40L32 40L32 41L31 41L31 43L32 43L32 45L33 45L33 46L34 46L34 44L33 44L33 43L34 43L34 41L38 41L38 39L39 39L39 40L40 40L40 41L39 41L39 42L40 42L40 43L37 43L37 42L35 42L35 46L36 46L36 47L35 47L35 49L37 49L37 48L38 48L38 49L39 49L39 48L40 48L40 49L41 49L41 48L42 48L42 47L43 47L43 48L44 48L44 49L45 49L45 48L46 48L46 46L47 46L47 45L48 45L48 46L49 46L49 44L48 44L48 43L49 43L49 38L48 38L48 37L49 37L49 33L48 33L48 32L49 32L49 29L48 29L48 30L43 30L43 28L44 28L44 27L45 27L45 26L46 26L46 25L45 25L45 22L46 22L46 23L49 23L49 21L48 21L48 20L49 20L49 18L48 18L48 17L49 17L49 13L47 13L47 12L49 12L49 10L48 10L48 9L47 9L47 8L46 8L46 9L43 9L43 8L41 8L41 10L42 10L42 9L43 9L43 10L45 10L45 11L42 11L42 12L41 12L41 13L42 13L42 12L43 12L43 14L44 14L44 13L45 13L45 15L44 15L44 17L43 17L43 16L42 16L42 14L39 14L39 15L41 15L41 16L42 16L42 17L41 17L41 18L40 18L40 16L38 16L38 15L33 15L33 14L34 14L34 13L33 13L33 12L35 12L35 13L37 13L37 14L38 14L38 12L39 12L39 11L40 11L40 9L39 9L39 8L40 8L40 7L41 7L41 6L40 6L40 7L39 7L39 5L38 5L38 4L37 4L37 5L36 5L36 8L34 8L34 9L33 9L33 6L32 6L32 5L33 5L33 4L32 4L32 1L34 1L34 2L33 2L33 3L34 3L34 7L35 7L35 1L38 1L38 2L39 2L39 4L40 4L40 3L41 3L41 0L40 0L40 1L38 1L38 0L30 0L30 2L29 2L29 3L30 3L30 7L31 7L31 6L32 6L32 9L33 9L33 11L32 11L32 10L30 10L30 9L29 9L29 8L28 8L28 7L29 7L29 5L28 5L28 4L26 4L26 3L28 3L28 2L27 2L27 1L28 1L28 0L25 0L25 1L26 1L26 2L24 2L24 1L23 1L23 0L20 0L20 1L21 1L21 2L24 2L24 3L20 3L20 4L19 4L19 5L21 5L21 4L22 4L22 7L21 7L21 6L20 6L20 7L19 7L19 6L18 6L18 5L16 5L16 3L15 3L15 2L18 2L18 1L17 1L17 0L16 0L16 1L15 1L15 2L14 2L14 1L13 1L13 0L11 0L11 1L10 1L10 0ZM14 3L14 4L15 4L15 3ZM17 3L17 4L18 4L18 3ZM24 3L24 4L25 4L25 3ZM31 4L31 5L32 5L32 4ZM12 5L12 6L11 6L11 9L10 9L10 11L8 11L8 12L7 12L7 11L6 11L6 10L7 10L7 9L4 9L4 10L5 10L5 12L7 12L7 13L8 13L8 14L7 14L7 15L8 15L8 16L7 16L7 17L6 17L6 18L8 18L8 20L9 20L9 18L8 18L8 16L9 16L9 17L10 17L10 16L9 16L9 15L10 15L10 14L11 14L11 15L12 15L12 16L11 16L11 17L12 17L12 18L13 18L13 19L11 19L11 18L10 18L10 19L11 19L11 20L13 20L13 22L12 22L12 21L11 21L11 22L9 22L9 21L8 21L8 22L9 22L9 27L8 27L8 29L9 29L9 30L8 30L8 31L6 31L6 32L7 32L7 33L6 33L6 34L7 34L7 35L6 35L6 36L8 36L8 38L9 38L9 39L10 39L10 38L11 38L11 40L10 40L10 41L11 41L11 43L12 43L12 44L13 44L13 43L12 43L12 42L14 42L14 43L17 43L17 44L16 44L16 45L15 45L15 44L14 44L14 46L13 46L13 45L12 45L12 46L13 46L13 47L14 47L14 46L16 46L16 47L17 47L17 44L19 44L19 45L20 45L20 46L19 46L19 47L22 47L22 48L23 48L23 47L22 47L22 44L21 44L21 39L20 39L20 38L21 38L21 37L20 37L20 36L22 36L22 38L23 38L23 34L24 34L24 40L25 40L25 39L26 39L26 38L25 38L25 37L27 37L27 38L28 38L28 37L27 37L27 36L29 36L29 37L30 37L30 39L29 39L29 40L30 40L30 39L32 39L32 38L31 38L31 37L32 37L32 35L33 35L33 33L34 33L34 35L36 35L36 33L35 33L35 31L34 31L34 30L36 30L36 31L39 31L39 32L37 32L37 37L38 37L38 38L36 38L36 37L35 37L35 36L34 36L34 37L33 37L33 39L34 39L34 40L33 40L33 41L34 41L34 40L35 40L35 39L34 39L34 38L36 38L36 39L38 39L38 38L39 38L39 39L40 39L40 36L41 36L41 37L42 37L42 38L41 38L41 40L42 40L42 38L45 38L45 36L46 36L46 39L45 39L45 41L46 41L46 42L45 42L45 43L46 43L46 44L45 44L45 45L47 45L47 43L46 43L46 42L48 42L48 41L47 41L47 40L48 40L48 39L47 39L47 36L48 36L48 35L45 35L45 36L44 36L44 35L43 35L43 37L42 37L42 36L41 36L41 35L40 35L40 34L43 34L43 33L44 33L44 34L45 34L45 33L47 33L47 31L45 31L45 32L43 32L43 33L41 33L41 32L42 32L42 30L41 30L41 32L40 32L40 31L39 31L39 29L42 29L42 28L41 28L41 27L39 27L39 29L37 29L37 30L36 30L36 29L35 29L35 27L38 27L38 26L40 26L40 24L39 24L39 23L40 23L40 22L43 22L43 21L42 21L42 20L43 20L43 17L42 17L42 19L40 19L40 18L39 18L39 17L38 17L38 19L37 19L37 17L35 17L35 16L33 16L33 17L34 17L34 18L33 18L33 19L34 19L34 20L33 20L33 23L34 23L34 24L33 24L33 25L32 25L32 22L31 22L31 21L32 21L32 19L30 19L30 22L27 22L27 21L23 21L23 19L24 19L24 18L25 18L25 20L27 20L27 19L28 19L28 20L29 20L29 19L28 19L28 18L32 18L32 16L29 16L29 13L28 13L28 14L27 14L27 13L23 13L23 11L24 11L24 10L25 10L25 12L27 12L27 11L30 11L30 12L31 12L31 13L30 13L30 15L31 15L31 13L32 13L32 11L30 11L30 10L27 10L27 9L22 9L22 8L21 8L21 7L20 7L20 9L18 9L18 10L17 10L17 8L16 8L16 6L15 6L15 5L14 5L14 6L13 6L13 5ZM23 5L23 8L26 8L26 5ZM27 5L27 7L28 7L28 5ZM12 6L12 7L13 7L13 8L12 8L12 10L13 10L13 11L12 11L12 12L11 12L11 13L13 13L13 14L12 14L12 15L13 15L13 14L14 14L14 12L15 12L15 11L16 11L16 13L15 13L15 15L14 15L14 16L13 16L13 18L14 18L14 19L16 19L16 20L17 20L17 23L16 23L16 24L17 24L17 26L19 26L19 23L18 23L18 21L19 21L19 16L21 16L21 15L19 15L19 16L18 16L18 14L17 14L17 15L16 15L16 13L19 13L19 12L18 12L18 11L23 11L23 10L22 10L22 9L21 9L21 10L18 10L18 11L17 11L17 10L16 10L16 8L14 8L14 7L15 7L15 6L14 6L14 7L13 7L13 6ZM17 6L17 7L18 7L18 8L19 8L19 7L18 7L18 6ZM24 6L24 7L25 7L25 6ZM37 6L37 8L38 8L38 6ZM14 9L14 11L15 11L15 9ZM34 9L34 11L35 11L35 10L36 10L36 11L37 11L37 10L36 10L36 9ZM38 9L38 11L39 11L39 9ZM46 9L46 10L47 10L47 9ZM45 11L45 12L47 12L47 11ZM8 12L8 13L10 13L10 12ZM22 13L22 14L23 14L23 15L24 15L24 17L22 17L22 19L23 19L23 18L24 18L24 17L27 17L27 16L28 16L28 17L29 17L29 16L28 16L28 15L27 15L27 16L25 16L25 15L24 15L24 14L23 14L23 13ZM46 13L46 15L45 15L45 18L44 18L44 20L46 20L46 21L47 21L47 22L48 22L48 21L47 21L47 19L48 19L48 18L47 18L47 17L48 17L48 15L47 15L47 13ZM8 14L8 15L9 15L9 14ZM15 15L15 18L16 18L16 19L17 19L17 20L18 20L18 19L17 19L17 16L16 16L16 15ZM4 16L4 17L3 17L3 18L4 18L4 20L7 20L7 19L5 19L5 18L4 18L4 17L5 17L5 16ZM20 18L20 20L21 20L21 22L22 22L22 26L20 26L20 28L22 28L22 27L26 27L26 28L25 28L25 30L26 30L26 34L25 34L25 35L26 35L26 36L27 36L27 34L29 34L29 33L30 33L30 32L31 32L31 30L32 30L32 33L33 33L33 32L34 32L34 31L33 31L33 30L32 30L32 29L33 29L33 28L34 28L34 25L35 25L35 24L36 24L36 26L38 26L38 25L39 25L39 24L37 24L37 23L35 23L35 22L34 22L34 23L35 23L35 24L34 24L34 25L33 25L33 26L32 26L32 25L31 25L31 26L32 26L32 29L31 29L31 27L30 27L30 28L28 28L28 27L29 27L29 26L28 26L28 25L29 25L29 24L30 24L30 23L28 23L28 25L27 25L27 22L22 22L22 20L21 20L21 18ZM35 18L35 20L34 20L34 21L36 21L36 22L37 22L37 21L39 21L39 20L40 20L40 19L38 19L38 20L37 20L37 19L36 19L36 18ZM46 18L46 19L47 19L47 18ZM2 19L2 20L3 20L3 19ZM14 20L14 21L15 21L15 20ZM6 21L6 22L7 22L7 21ZM44 21L44 22L45 22L45 21ZM14 22L14 23L15 23L15 22ZM5 23L5 26L8 26L8 23ZM11 23L11 24L12 24L12 25L13 25L13 26L12 26L12 27L11 27L11 28L10 28L10 31L14 31L14 28L15 28L15 27L16 27L16 28L17 28L17 31L16 31L16 30L15 30L15 31L16 31L16 32L17 32L17 34L18 34L18 36L17 36L17 39L18 39L18 40L16 40L16 38L14 38L14 39L15 39L15 40L13 40L13 39L12 39L12 40L11 40L11 41L14 41L14 42L15 42L15 41L17 41L17 42L18 42L18 43L19 43L19 40L20 40L20 39L19 39L19 36L20 36L20 35L22 35L22 34L23 34L23 33L21 33L21 34L19 34L19 32L20 32L20 31L22 31L22 30L24 30L24 29L21 29L21 30L19 30L19 28L17 28L17 27L16 27L16 26L15 26L15 24L13 24L13 23ZM17 23L17 24L18 24L18 23ZM20 23L20 24L21 24L21 23ZM23 23L23 26L26 26L26 23ZM41 23L41 26L44 26L44 23ZM0 24L0 26L1 26L1 27L0 27L0 28L1 28L1 27L2 27L2 26L1 26L1 24ZM2 24L2 25L3 25L3 24ZM6 24L6 25L7 25L7 24ZM24 24L24 25L25 25L25 24ZM42 24L42 25L43 25L43 24ZM47 24L47 27L49 27L49 24ZM14 26L14 27L15 27L15 26ZM27 26L27 27L28 27L28 26ZM11 28L11 30L12 30L12 29L13 29L13 28ZM26 28L26 30L27 30L27 29L28 29L28 30L29 30L29 32L30 32L30 30L31 30L31 29L28 29L28 28ZM6 29L6 30L7 30L7 29ZM18 31L18 32L19 32L19 31ZM23 31L23 32L25 32L25 31ZM0 32L0 35L2 35L2 36L4 36L4 34L1 34L1 32ZM8 32L8 33L9 33L9 32ZM10 32L10 34L11 34L11 35L12 35L12 38L13 38L13 35L12 35L12 34L14 34L14 35L15 35L15 36L14 36L14 37L15 37L15 36L16 36L16 35L15 35L15 32L13 32L13 33L12 33L12 32ZM27 32L27 33L28 33L28 32ZM11 33L11 34L12 34L12 33ZM31 34L31 35L29 35L29 36L30 36L30 37L31 37L31 35L32 35L32 34ZM38 34L38 36L39 36L39 34ZM0 36L0 38L1 38L1 40L0 40L0 41L3 41L3 40L4 40L4 39L2 39L2 38L1 38L1 36ZM9 36L9 37L11 37L11 36ZM3 37L3 38L4 38L4 37ZM22 39L22 40L23 40L23 39ZM43 39L43 40L44 40L44 39ZM23 41L23 44L26 44L26 41ZM41 41L41 44L44 44L44 41ZM24 42L24 43L25 43L25 42ZM42 42L42 43L43 43L43 42ZM37 44L37 47L38 47L38 46L39 46L39 47L40 47L40 44ZM41 45L41 47L42 47L42 45ZM8 46L8 49L9 49L9 46ZM26 46L26 47L27 47L27 46ZM43 46L43 47L44 47L44 48L45 48L45 47L44 47L44 46ZM29 47L29 48L30 48L30 47ZM47 47L47 49L49 49L49 48L48 48L48 47ZM0 0L0 7L7 7L7 0ZM1 1L1 6L6 6L6 1ZM2 2L2 5L5 5L5 2ZM42 0L42 7L49 7L49 0ZM43 1L43 6L48 6L48 1ZM44 2L44 5L47 5L47 2ZM0 42L0 49L7 49L7 42ZM1 43L1 48L6 48L6 43ZM2 44L2 47L5 47L5 44Z" fill="#000000"/></g></g></svg>
