<?xml version="1.0" encoding="UTF-8"?>
<svg xmlns="http://www.w3.org/2000/svg" version="1.1" width="300" height="300" viewBox="0 0 300 300"><rect x="0" y="0" width="300" height="300" fill="#ffffff"/><g transform="scale(5.882)"><g transform="translate(1,1)"><path fill-rule="evenodd" d="M8 0L8 1L9 1L9 3L10 3L10 4L9 4L9 5L10 5L10 4L12 4L12 2L11 2L11 1L12 1L12 0L11 0L11 1L9 1L9 0ZM13 0L13 2L15 2L15 3L13 3L13 4L15 4L15 3L18 3L18 4L19 4L19 5L17 5L17 6L16 6L16 5L13 5L13 6L12 6L12 5L11 5L11 6L10 6L10 7L9 7L9 6L8 6L8 8L10 8L10 9L11 9L11 12L14 12L14 13L15 13L15 14L14 14L14 15L12 15L12 16L11 16L11 15L10 15L10 16L9 16L9 17L10 17L10 19L8 19L8 20L10 20L10 19L11 19L11 21L7 21L7 20L4 20L4 18L5 18L5 19L7 19L7 18L5 18L5 17L7 17L7 16L6 16L6 15L7 15L7 14L6 14L6 13L7 13L7 12L5 12L5 16L4 16L4 14L3 14L3 13L4 13L4 12L0 12L0 13L2 13L2 14L3 14L3 16L4 16L4 17L2 17L2 15L1 15L1 14L0 14L0 15L1 15L1 16L0 16L0 17L2 17L2 19L3 19L3 20L4 20L4 21L5 21L5 22L2 22L2 23L1 23L1 22L0 22L0 23L1 23L1 25L2 25L2 26L1 26L1 27L2 27L2 26L3 26L3 25L4 25L4 27L5 27L5 28L4 28L4 31L3 31L3 28L2 28L2 29L1 29L1 28L0 28L0 30L1 30L1 31L0 31L0 34L1 34L1 35L2 35L2 34L3 34L3 36L2 36L2 37L1 37L1 40L0 40L0 41L3 41L3 40L4 40L4 39L2 39L2 38L3 38L3 37L5 37L5 34L6 34L6 35L8 35L8 36L6 36L6 37L8 37L8 39L9 39L9 36L10 36L10 38L11 38L11 39L12 39L12 40L11 40L11 41L12 41L12 42L10 42L10 40L8 40L8 42L10 42L10 43L9 43L9 44L8 44L8 46L9 46L9 47L8 47L8 49L11 49L11 47L12 47L12 45L14 45L14 47L13 47L13 48L14 48L14 49L15 49L15 46L17 46L17 45L19 45L19 44L20 44L20 47L21 47L21 48L22 48L22 49L24 49L24 47L25 47L25 46L22 46L22 47L21 47L21 45L26 45L26 47L27 47L27 49L29 49L29 48L28 48L28 47L31 47L31 48L30 48L30 49L31 49L31 48L32 48L32 49L33 49L33 48L34 48L34 47L37 47L37 46L38 46L38 47L39 47L39 48L35 48L35 49L39 49L39 48L41 48L41 49L42 49L42 48L43 48L43 49L46 49L46 48L48 48L48 49L49 49L49 47L48 47L48 45L49 45L49 42L48 42L48 41L47 41L47 39L49 39L49 37L48 37L48 38L47 38L47 37L45 37L45 36L48 36L48 35L49 35L49 34L48 34L48 35L45 35L45 33L46 33L46 30L47 30L47 27L48 27L48 29L49 29L49 26L47 26L47 27L46 27L46 26L45 26L45 24L46 24L46 25L47 25L47 23L46 23L46 22L48 22L48 25L49 25L49 22L48 22L48 21L49 21L49 18L48 18L48 19L47 19L47 17L49 17L49 16L48 16L48 15L49 15L49 14L46 14L46 13L49 13L49 12L48 12L48 11L49 11L49 10L48 10L48 11L44 11L44 13L41 13L41 14L40 14L40 12L41 12L41 11L42 11L42 10L43 10L43 8L42 8L42 9L40 9L40 10L39 10L39 5L38 5L38 2L39 2L39 4L40 4L40 3L41 3L41 0L40 0L40 1L38 1L38 2L37 2L37 1L36 1L36 2L37 2L37 3L35 3L35 0L34 0L34 3L33 3L33 0L29 0L29 1L27 1L27 0L26 0L26 1L25 1L25 0L22 0L22 3L21 3L21 4L19 4L19 1L18 1L18 0L16 0L16 2L15 2L15 1L14 1L14 0ZM20 0L20 2L21 2L21 0ZM26 1L26 2L23 2L23 3L26 3L26 4L27 4L27 3L26 3L26 2L27 2L27 1ZM30 1L30 2L31 2L31 3L30 3L30 4L31 4L31 5L29 5L29 4L28 4L28 5L27 5L27 9L28 9L28 10L26 10L26 11L27 11L27 14L28 14L28 15L27 15L27 17L26 17L26 16L25 16L25 15L26 15L26 12L25 12L25 11L24 11L24 10L22 10L22 8L21 8L21 7L22 7L22 6L21 6L21 5L20 5L20 6L19 6L19 8L21 8L21 10L19 10L19 9L17 9L17 10L18 10L18 12L20 12L20 13L17 13L17 11L15 11L15 9L16 9L16 8L17 8L17 7L18 7L18 6L17 6L17 7L16 7L16 6L15 6L15 7L14 7L14 6L13 6L13 7L12 7L12 6L11 6L11 9L13 9L13 10L12 10L12 11L15 11L15 12L16 12L16 14L15 14L15 15L14 15L14 16L16 16L16 17L15 17L15 18L16 18L16 17L18 17L18 18L19 18L19 17L20 17L20 18L22 18L22 16L21 16L21 17L20 17L20 15L23 15L23 13L24 13L24 12L25 12L25 15L24 15L24 16L23 16L23 19L22 19L22 20L23 20L23 19L24 19L24 20L25 20L25 21L24 21L24 22L26 22L26 20L25 20L25 19L24 19L24 18L25 18L25 17L26 17L26 19L27 19L27 20L30 20L30 19L31 19L31 20L32 20L32 21L31 21L31 22L30 22L30 21L28 21L28 23L29 23L29 26L28 26L28 24L27 24L27 26L28 26L28 27L26 27L26 28L27 28L27 29L26 29L26 30L24 30L24 29L23 29L23 30L22 30L22 29L20 29L20 28L21 28L21 27L22 27L22 28L25 28L25 27L22 27L22 26L21 26L21 27L20 27L20 26L19 26L19 25L17 25L17 24L15 24L15 23L16 23L16 22L15 22L15 19L13 19L13 18L14 18L14 17L13 17L13 18L11 18L11 19L13 19L13 20L12 20L12 21L13 21L13 22L12 22L12 23L10 23L10 22L9 22L9 25L10 25L10 24L11 24L11 25L12 25L12 26L13 26L13 27L14 27L14 28L15 28L15 29L18 29L18 30L19 30L19 29L20 29L20 32L21 32L21 34L20 34L20 35L22 35L22 36L21 36L21 38L19 38L19 37L18 37L18 36L19 36L19 34L17 34L17 35L16 35L16 34L15 34L15 33L17 33L17 32L18 32L18 31L15 31L15 30L14 30L14 29L13 29L13 28L12 28L12 27L11 27L11 26L10 26L10 27L6 27L6 28L5 28L5 29L6 29L6 30L7 30L7 31L6 31L6 32L7 32L7 33L6 33L6 34L7 34L7 33L9 33L9 35L11 35L11 38L12 38L12 34L14 34L14 35L13 35L13 37L14 37L14 39L13 39L13 40L12 40L12 41L13 41L13 40L14 40L14 39L15 39L15 40L16 40L16 39L17 39L17 41L18 41L18 43L17 43L17 42L15 42L15 41L14 41L14 42L13 42L13 44L14 44L14 45L17 45L17 44L19 44L19 41L20 41L20 43L21 43L21 44L22 44L22 43L21 43L21 40L20 40L20 39L23 39L23 40L24 40L24 39L23 39L23 38L24 38L24 37L23 37L23 33L24 33L24 32L25 32L25 31L26 31L26 32L29 32L29 34L28 34L28 33L25 33L25 37L28 37L28 38L26 38L26 40L27 40L27 39L28 39L28 41L31 41L31 40L29 40L29 39L30 39L30 38L29 38L29 37L28 37L28 36L26 36L26 34L27 34L27 35L29 35L29 36L30 36L30 35L31 35L31 34L32 34L32 33L33 33L33 34L34 34L34 33L36 33L36 32L38 32L38 31L40 31L40 30L41 30L41 32L40 32L40 33L41 33L41 32L43 32L43 31L42 31L42 30L43 30L43 29L44 29L44 32L45 32L45 30L46 30L46 29L44 29L44 27L41 27L41 28L40 28L40 30L39 30L39 29L38 29L38 31L37 31L37 29L36 29L36 28L39 28L39 27L40 27L40 26L39 26L39 27L38 27L38 26L37 26L37 27L36 27L36 26L35 26L35 24L38 24L38 25L39 25L39 24L40 24L40 23L39 23L39 22L37 22L37 21L39 21L39 20L40 20L40 21L42 21L42 20L40 20L40 19L41 19L41 18L42 18L42 19L43 19L43 18L42 18L42 16L41 16L41 18L40 18L40 17L38 17L38 15L37 15L37 14L35 14L35 13L36 13L36 12L37 12L37 13L39 13L39 12L40 12L40 11L41 11L41 10L40 10L40 11L39 11L39 10L38 10L38 9L35 9L35 10L36 10L36 12L35 12L35 11L33 11L33 12L34 12L34 13L32 13L32 14L30 14L30 12L29 12L29 14L28 14L28 10L29 10L29 11L32 11L32 10L33 10L33 8L34 8L34 6L35 6L35 8L36 8L36 6L37 6L37 7L38 7L38 5L37 5L37 4L36 4L36 5L35 5L35 3L34 3L34 6L33 6L33 5L32 5L32 2L31 2L31 1ZM28 2L28 3L29 3L29 2ZM23 5L23 8L26 8L26 5ZM20 6L20 7L21 7L21 6ZM24 6L24 7L25 7L25 6ZM28 6L28 9L29 9L29 6ZM30 6L30 8L31 8L31 9L30 9L30 10L31 10L31 9L32 9L32 8L31 8L31 6ZM32 6L32 7L33 7L33 6ZM40 6L40 7L41 7L41 6ZM0 8L0 11L1 11L1 10L2 10L2 8ZM3 8L3 10L4 10L4 9L5 9L5 10L6 10L6 11L7 11L7 10L6 10L6 9L7 9L7 8L6 8L6 9L5 9L5 8ZM48 8L48 9L49 9L49 8ZM8 9L8 12L9 12L9 9ZM44 9L44 10L45 10L45 9ZM46 9L46 10L47 10L47 9ZM37 10L37 11L38 11L38 12L39 12L39 11L38 11L38 10ZM22 11L22 12L21 12L21 13L20 13L20 14L21 14L21 13L22 13L22 12L23 12L23 11ZM45 12L45 13L46 13L46 12ZM10 13L10 14L11 14L11 13ZM12 13L12 14L13 14L13 13ZM8 14L8 15L9 15L9 14ZM16 14L16 15L17 15L17 16L18 16L18 17L19 17L19 16L18 16L18 15L19 15L19 14L18 14L18 15L17 15L17 14ZM29 14L29 18L27 18L27 19L30 19L30 18L31 18L31 19L34 19L34 18L35 18L35 19L37 19L37 18L35 18L35 17L37 17L37 15L36 15L36 16L35 16L35 15L34 15L34 14L33 14L33 16L32 16L32 15L30 15L30 14ZM39 14L39 15L40 15L40 14ZM42 14L42 15L43 15L43 16L46 16L46 15L43 15L43 14ZM24 16L24 17L25 17L25 16ZM30 16L30 17L31 17L31 18L33 18L33 17L35 17L35 16L33 16L33 17L32 17L32 16ZM0 18L0 19L1 19L1 18ZM39 18L39 19L40 19L40 18ZM16 19L16 21L17 21L17 22L18 22L18 23L21 23L21 24L20 24L20 25L21 25L21 24L22 24L22 23L21 23L21 22L18 22L18 21L17 21L17 20L18 20L18 19ZM46 19L46 20L43 20L43 22L44 22L44 21L45 21L45 22L46 22L46 21L48 21L48 20L47 20L47 19ZM33 20L33 22L32 22L32 24L30 24L30 26L29 26L29 27L28 27L28 28L30 28L30 29L28 29L28 30L26 30L26 31L28 31L28 30L31 30L31 31L30 31L30 34L31 34L31 33L32 33L32 32L31 32L31 31L34 31L34 32L36 32L36 31L35 31L35 27L34 27L34 25L33 25L33 23L34 23L34 24L35 24L35 23L36 23L36 21L37 21L37 20ZM6 21L6 22L7 22L7 21ZM13 22L13 25L15 25L15 26L14 26L14 27L16 27L16 28L18 28L18 29L19 29L19 26L18 26L18 27L16 27L16 25L15 25L15 24L14 24L14 22ZM29 22L29 23L30 23L30 22ZM34 22L34 23L35 23L35 22ZM3 23L3 24L4 24L4 23ZM5 23L5 26L8 26L8 23ZM23 23L23 26L26 26L26 23ZM41 23L41 26L44 26L44 23ZM6 24L6 25L7 25L7 24ZM24 24L24 25L25 25L25 24ZM42 24L42 25L43 25L43 24ZM32 25L32 26L33 26L33 25ZM30 26L30 28L31 28L31 30L33 30L33 29L32 29L32 28L34 28L34 27L32 27L32 28L31 28L31 26ZM10 27L10 28L9 28L9 30L8 30L8 29L7 29L7 28L6 28L6 29L7 29L7 30L8 30L8 31L7 31L7 32L10 32L10 34L12 34L12 33L14 33L14 30L13 30L13 32L12 32L12 29L11 29L11 27ZM41 28L41 29L43 29L43 28ZM10 29L10 30L11 30L11 29ZM23 30L23 31L24 31L24 30ZM48 30L48 31L49 31L49 30ZM1 31L1 33L3 33L3 31ZM4 31L4 33L5 33L5 31ZM10 31L10 32L11 32L11 33L12 33L12 32L11 32L11 31ZM22 32L22 33L23 33L23 32ZM47 32L47 33L48 33L48 32ZM37 33L37 34L35 34L35 35L33 35L33 37L32 37L32 40L33 40L33 41L32 41L32 42L30 42L30 43L28 43L28 44L27 44L27 46L28 46L28 44L30 44L30 45L31 45L31 44L32 44L32 45L33 45L33 46L32 46L32 47L33 47L33 46L34 46L34 45L35 45L35 46L37 46L37 45L35 45L35 44L37 44L37 43L38 43L38 44L40 44L40 43L39 43L39 42L40 42L40 41L35 41L35 40L37 40L37 37L36 37L36 36L37 36L37 35L39 35L39 34L38 34L38 33ZM43 33L43 34L44 34L44 33ZM40 34L40 37L39 37L39 36L38 36L38 37L39 37L39 38L38 38L38 40L43 40L43 39L44 39L44 40L45 40L45 39L47 39L47 38L43 38L43 35L42 35L42 34ZM14 35L14 37L16 37L16 35ZM17 35L17 36L18 36L18 35ZM35 35L35 36L36 36L36 35ZM41 35L41 38L40 38L40 39L41 39L41 38L42 38L42 39L43 39L43 38L42 38L42 35ZM22 37L22 38L23 38L23 37ZM33 37L33 40L34 40L34 39L36 39L36 37L35 37L35 38L34 38L34 37ZM5 38L5 39L7 39L7 38ZM15 38L15 39L16 39L16 38ZM18 38L18 39L19 39L19 38ZM28 38L28 39L29 39L29 38ZM6 40L6 41L7 41L7 40ZM18 40L18 41L19 41L19 40ZM23 41L23 44L26 44L26 41ZM33 41L33 42L32 42L32 43L33 43L33 44L34 44L34 42L35 42L35 41ZM41 41L41 44L44 44L44 41ZM45 41L45 42L46 42L46 41ZM24 42L24 43L25 43L25 42ZM36 42L36 43L37 43L37 42ZM42 42L42 43L43 43L43 42ZM47 42L47 43L45 43L45 44L46 44L46 46L45 46L45 45L42 45L42 46L43 46L43 48L45 48L45 47L46 47L46 46L47 46L47 45L48 45L48 44L47 44L47 43L48 43L48 42ZM30 43L30 44L31 44L31 43ZM10 44L10 45L12 45L12 44ZM39 45L39 47L41 47L41 45ZM18 46L18 49L20 49L20 48L19 48L19 46ZM44 46L44 47L45 47L45 46ZM9 47L9 48L10 48L10 47ZM16 47L16 48L17 48L17 47ZM0 0L0 7L7 7L7 0ZM1 1L1 6L6 6L6 1ZM2 2L2 5L5 5L5 2ZM42 0L42 7L49 7L49 0ZM43 1L43 6L48 6L48 1ZM44 2L44 5L47 5L47 2ZM0 42L0 49L7 49L7 42ZM1 43L1 48L6 48L6 43ZM2 44L2 47L5 47L5 44Z" fill="#000000"/></g></g></svg>
