<?xml version="1.0" encoding="UTF-8"?>
<svg xmlns="http://www.w3.org/2000/svg" version="1.1" width="300" height="300" viewBox="0 0 300 300"><rect x="0" y="0" width="300" height="300" fill="#ffffff"/><g transform="scale(5.882)"><g transform="translate(1,1)"><path fill-rule="evenodd" d="M8 0L8 1L11 1L11 2L10 2L10 4L9 4L9 6L8 6L8 8L9 8L9 6L10 6L10 7L11 7L11 8L10 8L10 11L9 11L9 10L8 10L8 9L7 9L7 8L6 8L6 9L7 9L7 10L6 10L6 11L7 11L7 12L5 12L5 13L7 13L7 14L6 14L6 15L5 15L5 14L4 14L4 15L1 15L1 12L2 12L2 13L3 13L3 12L4 12L4 11L5 11L5 10L4 10L4 9L5 9L5 8L3 8L3 9L2 9L2 8L0 8L0 9L1 9L1 12L0 12L0 17L2 17L2 18L1 18L1 21L0 21L0 22L3 22L3 21L4 21L4 17L5 17L5 16L6 16L6 17L7 17L7 18L5 18L5 19L7 19L7 20L6 20L6 21L5 21L5 22L4 22L4 23L1 23L1 24L0 24L0 26L1 26L1 25L2 25L2 28L1 28L1 27L0 27L0 28L1 28L1 29L0 29L0 30L1 30L1 31L0 31L0 34L1 34L1 33L2 33L2 32L1 32L1 31L3 31L3 32L4 32L4 33L3 33L3 34L4 34L4 35L5 35L5 34L6 34L6 35L9 35L9 34L8 34L8 33L7 33L7 32L6 32L6 33L5 33L5 32L4 32L4 30L1 30L1 29L4 29L4 28L5 28L5 29L8 29L8 27L9 27L9 29L10 29L10 30L9 30L9 31L13 31L13 32L16 32L16 31L15 31L15 30L17 30L17 31L20 31L20 29L19 29L19 28L18 28L18 29L17 29L17 27L18 27L18 26L19 26L19 27L20 27L20 28L22 28L22 29L23 29L23 28L25 28L25 29L24 29L24 30L25 30L25 31L23 31L23 32L22 32L22 31L21 31L21 32L17 32L17 33L11 33L11 32L10 32L10 34L11 34L11 36L9 36L9 38L8 38L8 42L10 42L10 43L9 43L9 44L8 44L8 46L9 46L9 45L10 45L10 43L11 43L11 41L12 41L12 44L11 44L11 45L12 45L12 47L11 47L11 46L10 46L10 47L11 47L11 49L12 49L12 48L13 48L13 47L16 47L16 48L14 48L14 49L16 49L16 48L17 48L17 47L22 47L22 45L24 45L24 47L23 47L23 48L22 48L22 49L30 49L30 48L32 48L32 49L33 49L33 48L34 48L34 49L37 49L37 48L38 48L38 47L39 47L39 49L40 49L40 48L41 48L41 49L42 49L42 48L43 48L43 49L47 49L47 48L48 48L48 49L49 49L49 47L48 47L48 44L47 44L47 47L46 47L46 48L43 48L43 46L42 46L42 45L45 45L45 46L44 46L44 47L45 47L45 46L46 46L46 44L45 44L45 43L47 43L47 42L48 42L48 43L49 43L49 42L48 42L48 41L47 41L47 40L49 40L49 34L48 34L48 35L45 35L45 33L46 33L46 31L43 31L43 30L44 30L44 29L43 29L43 30L41 30L41 29L42 29L42 28L41 28L41 27L44 27L44 28L45 28L45 30L46 30L46 29L49 29L49 26L48 26L48 25L49 25L49 22L48 22L48 21L49 21L49 20L48 20L48 21L46 21L46 22L45 22L45 21L44 21L44 22L43 22L43 20L46 20L46 19L47 19L47 18L48 18L48 19L49 19L49 18L48 18L48 17L49 17L49 16L48 16L48 15L49 15L49 14L45 14L45 12L46 12L46 13L47 13L47 12L48 12L48 13L49 13L49 10L47 10L47 9L46 9L46 10L47 10L47 11L45 11L45 9L43 9L43 8L42 8L42 9L40 9L40 10L39 10L39 9L38 9L38 8L39 8L39 5L38 5L38 2L39 2L39 4L40 4L40 3L41 3L41 0L40 0L40 1L38 1L38 2L37 2L37 3L35 3L35 1L37 1L37 0L34 0L34 3L33 3L33 1L32 1L32 0L28 0L28 1L27 1L27 0L26 0L26 1L27 1L27 2L29 2L29 3L26 3L26 4L25 4L25 3L24 3L24 2L25 2L25 0L24 0L24 2L23 2L23 0L20 0L20 2L19 2L19 3L18 3L18 4L17 4L17 5L14 5L14 4L15 4L15 2L17 2L17 1L18 1L18 0L16 0L16 1L15 1L15 2L14 2L14 0L12 0L12 1L11 1L11 0ZM12 1L12 2L11 2L11 3L12 3L12 2L13 2L13 3L14 3L14 2L13 2L13 1ZM21 1L21 2L20 2L20 4L18 4L18 5L20 5L20 6L19 6L19 7L18 7L18 6L17 6L17 7L16 7L16 6L15 6L15 7L14 7L14 6L13 6L13 11L12 11L12 9L11 9L11 11L10 11L10 12L9 12L9 13L8 13L8 12L7 12L7 13L8 13L8 14L9 14L9 17L8 17L8 16L7 16L7 15L6 15L6 16L7 16L7 17L8 17L8 18L7 18L7 19L8 19L8 22L9 22L9 20L10 20L10 21L11 21L11 22L10 22L10 23L11 23L11 24L9 24L9 25L10 25L10 26L11 26L11 27L13 27L13 28L12 28L12 29L11 29L11 28L10 28L10 29L11 29L11 30L12 30L12 29L13 29L13 30L14 30L14 29L13 29L13 28L15 28L15 27L14 27L14 26L17 26L17 25L18 25L18 24L17 24L17 22L19 22L19 21L17 21L17 20L16 20L16 19L17 19L17 18L16 18L16 19L15 19L15 18L13 18L13 17L14 17L14 16L12 16L12 17L11 17L11 16L10 16L10 15L11 15L11 14L12 14L12 12L13 12L13 13L14 13L14 14L13 14L13 15L14 15L14 14L15 14L15 17L17 17L17 16L18 16L18 15L20 15L20 16L19 16L19 17L18 17L18 18L19 18L19 17L20 17L20 19L21 19L21 17L22 17L22 18L23 18L23 19L22 19L22 21L21 21L21 23L19 23L19 24L21 24L21 23L22 23L22 21L23 21L23 19L24 19L24 20L25 20L25 19L24 19L24 16L25 16L25 15L26 15L26 14L25 14L25 15L23 15L23 17L22 17L22 16L21 16L21 14L20 14L20 13L21 13L21 11L20 11L20 13L19 13L19 14L18 14L18 12L16 12L16 11L15 11L15 12L16 12L16 14L15 14L15 13L14 13L14 12L13 12L13 11L14 11L14 10L15 10L15 8L16 8L16 9L17 9L17 10L19 10L19 9L17 9L17 7L18 7L18 8L20 8L20 6L21 6L21 7L22 7L22 6L21 6L21 5L20 5L20 4L21 4L21 2L22 2L22 1ZM30 1L30 2L31 2L31 3L30 3L30 4L31 4L31 5L28 5L28 4L27 4L27 5L28 5L28 6L27 6L27 9L28 9L28 10L25 10L25 11L24 11L24 10L22 10L22 8L21 8L21 10L22 10L22 11L24 11L24 12L23 12L23 13L22 13L22 14L24 14L24 12L25 12L25 13L27 13L27 14L28 14L28 15L27 15L27 17L26 17L26 20L27 20L27 22L30 22L30 23L32 23L32 22L33 22L33 20L37 20L37 21L36 21L36 23L38 23L38 25L39 25L39 24L40 24L40 23L39 23L39 22L37 22L37 21L39 21L39 20L40 20L40 21L42 21L42 20L41 20L41 19L39 19L39 18L40 18L40 16L38 16L38 15L37 15L37 14L35 14L35 13L36 13L36 12L37 12L37 13L39 13L39 12L40 12L40 14L39 14L39 15L40 15L40 14L41 14L41 13L44 13L44 11L43 11L43 10L42 10L42 11L41 11L41 12L40 12L40 11L39 11L39 10L38 10L38 9L36 9L36 10L38 10L38 11L36 11L36 12L35 12L35 11L33 11L33 12L34 12L34 13L32 13L32 14L30 14L30 12L29 12L29 11L28 11L28 10L30 10L30 11L32 11L32 9L34 9L34 8L37 8L37 7L38 7L38 5L37 5L37 4L36 4L36 5L35 5L35 3L34 3L34 6L33 6L33 5L32 5L32 2L31 2L31 1ZM22 3L22 4L23 4L23 3ZM11 4L11 5L10 5L10 6L11 6L11 7L12 7L12 6L11 6L11 5L13 5L13 4ZM23 5L23 8L26 8L26 5ZM24 6L24 7L25 7L25 6ZM28 6L28 9L29 9L29 8L31 8L31 9L30 9L30 10L31 10L31 9L32 9L32 8L31 8L31 6L30 6L30 7L29 7L29 6ZM32 6L32 7L33 7L33 8L34 8L34 7L35 7L35 6L34 6L34 7L33 7L33 6ZM36 6L36 7L37 7L37 6ZM40 6L40 7L41 7L41 6ZM48 8L48 9L49 9L49 8ZM2 10L2 11L4 11L4 10ZM7 10L7 11L8 11L8 10ZM38 11L38 12L39 12L39 11ZM10 12L10 13L9 13L9 14L10 14L10 13L11 13L11 12ZM28 12L28 13L29 13L29 12ZM29 14L29 16L30 16L30 17L29 17L29 18L31 18L31 19L30 19L30 20L31 20L31 21L30 21L30 22L31 22L31 21L32 21L32 20L31 20L31 19L34 19L34 18L35 18L35 19L36 19L36 17L37 17L37 15L36 15L36 17L35 17L35 15L34 15L34 14L33 14L33 15L34 15L34 17L33 17L33 16L32 16L32 15L31 15L31 16L30 16L30 14ZM42 14L42 15L41 15L41 18L42 18L42 19L43 19L43 18L44 18L44 19L45 19L45 17L47 17L47 16L45 16L45 15L43 15L43 14ZM4 15L4 16L5 16L5 15ZM16 15L16 16L17 16L17 15ZM42 15L42 16L43 16L43 17L42 17L42 18L43 18L43 17L45 17L45 16L43 16L43 15ZM31 16L31 18L32 18L32 16ZM9 17L9 18L8 18L8 19L9 19L9 18L11 18L11 17ZM27 17L27 18L28 18L28 17ZM10 19L10 20L12 20L12 22L11 22L11 23L12 23L12 24L11 24L11 25L12 25L12 26L14 26L14 25L17 25L17 24L15 24L15 23L14 23L14 24L13 24L13 19ZM15 20L15 22L17 22L17 21L16 21L16 20ZM28 20L28 21L29 21L29 20ZM6 21L6 22L7 22L7 21ZM25 21L25 22L26 22L26 21ZM34 22L34 23L33 23L33 26L32 26L32 28L31 28L31 26L30 26L30 25L29 25L29 26L30 26L30 28L28 28L28 27L25 27L25 28L26 28L26 29L25 29L25 30L27 30L27 31L25 31L25 32L24 32L24 33L25 33L25 34L22 34L22 32L21 32L21 34L20 34L20 33L17 33L17 34L18 34L18 36L17 36L17 37L16 37L16 35L15 35L15 34L14 34L14 35L15 35L15 37L16 37L16 38L20 38L20 37L18 37L18 36L20 36L20 35L24 35L24 36L25 36L25 35L26 35L26 33L27 33L27 34L30 34L30 35L29 35L29 36L30 36L30 35L33 35L33 37L32 37L32 40L31 40L31 39L30 39L30 38L29 38L29 37L28 37L28 35L27 35L27 36L26 36L26 39L25 39L25 38L22 38L22 37L23 37L23 36L22 36L22 37L21 37L21 39L19 39L19 41L18 41L18 40L17 40L17 42L13 42L13 43L14 43L14 44L13 44L13 46L14 46L14 44L15 44L15 43L17 43L17 42L19 42L19 44L20 44L20 45L18 45L18 46L20 46L20 45L21 45L21 44L22 44L22 43L21 43L21 42L22 42L22 41L21 41L21 40L22 40L22 39L23 39L23 40L28 40L28 41L27 41L27 42L29 42L29 43L28 43L28 44L27 44L27 46L29 46L29 45L31 45L31 44L32 44L32 45L33 45L33 46L32 46L32 47L33 47L33 46L34 46L34 45L35 45L35 46L37 46L37 47L36 47L36 48L37 48L37 47L38 47L38 46L37 46L37 45L35 45L35 44L37 44L37 43L38 43L38 44L40 44L40 43L39 43L39 42L40 42L40 41L38 41L38 39L39 39L39 40L45 40L45 39L47 39L47 38L48 38L48 36L45 36L45 37L47 37L47 38L45 38L45 39L40 39L40 38L38 38L38 39L37 39L37 37L36 37L36 36L37 36L37 35L36 35L36 36L35 36L35 35L33 35L33 33L34 33L34 32L33 32L33 31L32 31L32 33L31 33L31 32L30 32L30 33L28 33L28 32L29 32L29 31L28 31L28 29L29 29L29 30L30 30L30 28L31 28L31 30L33 30L33 29L32 29L32 28L34 28L34 27L35 27L35 31L36 31L36 32L35 32L35 34L38 34L38 35L39 35L39 34L38 34L38 33L39 33L39 31L40 31L40 30L39 30L39 29L38 29L38 31L37 31L37 29L36 29L36 28L39 28L39 27L36 27L36 25L35 25L35 22ZM47 22L47 24L46 24L46 25L45 25L45 26L46 26L46 27L47 27L47 25L48 25L48 22ZM5 23L5 26L8 26L8 23ZM23 23L23 26L26 26L26 23ZM27 23L27 26L28 26L28 24L29 24L29 23ZM41 23L41 26L44 26L44 23ZM6 24L6 25L7 25L7 24ZM24 24L24 25L25 25L25 24ZM42 24L42 25L43 25L43 24ZM19 25L19 26L20 26L20 27L22 27L22 28L23 28L23 27L22 27L22 25L21 25L21 26L20 26L20 25ZM33 26L33 27L34 27L34 26ZM3 27L3 28L4 28L4 27ZM5 27L5 28L7 28L7 27ZM27 28L27 29L28 29L28 28ZM40 28L40 29L41 29L41 28ZM18 29L18 30L19 30L19 29ZM5 30L5 31L8 31L8 30ZM48 30L48 31L49 31L49 30ZM27 31L27 32L28 32L28 31ZM41 31L41 32L40 32L40 33L41 33L41 32L43 32L43 31ZM25 32L25 33L26 33L26 32ZM36 32L36 33L37 33L37 32ZM47 32L47 33L48 33L48 32ZM6 33L6 34L7 34L7 33ZM30 33L30 34L31 34L31 33ZM43 33L43 34L44 34L44 33ZM19 34L19 35L20 35L20 34ZM41 34L41 35L42 35L42 36L41 36L41 37L43 37L43 38L44 38L44 37L43 37L43 35L42 35L42 34ZM0 35L0 38L1 38L1 40L0 40L0 41L3 41L3 40L4 40L4 39L2 39L2 38L5 38L5 39L7 39L7 38L5 38L5 37L4 37L4 36L3 36L3 35ZM12 35L12 36L13 36L13 35ZM6 36L6 37L7 37L7 36ZM38 36L38 37L39 37L39 36ZM1 37L1 38L2 38L2 37ZM10 37L10 38L11 38L11 39L12 39L12 41L13 41L13 37L12 37L12 38L11 38L11 37ZM33 37L33 40L32 40L32 41L33 41L33 42L32 42L32 43L33 43L33 44L34 44L34 43L33 43L33 42L35 42L35 41L36 41L36 42L37 42L37 40L36 40L36 37L35 37L35 38L34 38L34 37ZM14 38L14 40L15 40L15 41L16 41L16 39L15 39L15 38ZM27 38L27 39L28 39L28 40L30 40L30 41L29 41L29 42L31 42L31 40L30 40L30 39L29 39L29 38ZM34 39L34 40L33 40L33 41L34 41L34 40L35 40L35 39ZM6 40L6 41L7 41L7 40ZM9 40L9 41L11 41L11 40ZM19 41L19 42L20 42L20 41ZM23 41L23 44L26 44L26 41ZM41 41L41 44L44 44L44 41ZM45 41L45 42L46 42L46 41ZM24 42L24 43L25 43L25 42ZM42 42L42 43L43 43L43 42ZM30 43L30 44L31 44L31 43ZM16 44L16 45L15 45L15 46L16 46L16 45L17 45L17 44ZM28 44L28 45L29 45L29 44ZM25 45L25 46L26 46L26 45ZM39 45L39 47L41 47L41 45ZM8 47L8 49L9 49L9 47ZM25 47L25 48L27 48L27 47ZM28 47L28 48L29 48L29 47ZM18 48L18 49L20 49L20 48ZM0 0L0 7L7 7L7 0ZM1 1L1 6L6 6L6 1ZM2 2L2 5L5 5L5 2ZM42 0L42 7L49 7L49 0ZM43 1L43 6L48 6L48 1ZM44 2L44 5L47 5L47 2ZM0 42L0 49L7 49L7 42ZM1 43L1 48L6 48L6 43ZM2 44L2 47L5 47L5 44Z" fill="#000000"/></g></g></svg>
