<?xml version="1.0" encoding="UTF-8"?>
<svg xmlns="http://www.w3.org/2000/svg" version="1.1" width="300" height="300" viewBox="0 0 300 300"><rect x="0" y="0" width="300" height="300" fill="#ffffff"/><g transform="scale(5.455)"><g transform="translate(1,1)"><path fill-rule="evenodd" d="M10 0L10 1L11 1L11 0ZM12 0L12 1L14 1L14 0ZM15 0L15 1L16 1L16 0ZM18 0L18 1L20 1L20 2L19 2L19 3L18 3L18 4L21 4L21 3L22 3L22 1L23 1L23 0L22 0L22 1L21 1L21 0ZM24 0L24 2L23 2L23 4L22 4L22 5L24 5L24 10L23 10L23 9L22 9L22 8L21 8L21 6L20 6L20 7L19 7L19 5L18 5L18 7L17 7L17 5L16 5L16 4L17 4L17 3L16 3L16 2L15 2L15 5L13 5L13 4L14 4L14 3L13 3L13 4L12 4L12 2L10 2L10 4L9 4L9 3L8 3L8 4L9 4L9 5L8 5L8 7L9 7L9 8L6 8L6 9L8 9L8 10L10 10L10 11L7 11L7 10L6 10L6 11L7 11L7 12L6 12L6 13L5 13L5 11L4 11L4 14L6 14L6 15L7 15L7 16L6 16L6 17L4 17L4 16L5 16L5 15L2 15L2 16L1 16L1 14L0 14L0 16L1 16L1 18L2 18L2 17L4 17L4 18L6 18L6 19L7 19L7 20L2 20L2 19L1 19L1 21L3 21L3 22L2 22L2 24L0 24L0 25L1 25L1 26L0 26L0 27L2 27L2 28L1 28L1 29L0 29L0 32L1 32L1 35L0 35L0 38L1 38L1 39L0 39L0 41L1 41L1 42L0 42L0 43L1 43L1 44L3 44L3 45L4 45L4 44L3 44L3 43L9 43L9 44L6 44L6 45L8 45L8 47L9 47L9 48L8 48L8 53L9 53L9 52L10 52L10 51L9 51L9 49L10 49L10 48L12 48L12 49L11 49L11 52L12 52L12 50L14 50L14 51L15 51L15 52L14 52L14 53L16 53L16 51L15 51L15 50L16 50L16 49L15 49L15 47L16 47L16 48L17 48L17 49L18 49L18 52L17 52L17 53L19 53L19 52L21 52L21 53L22 53L22 52L21 52L21 49L22 49L22 48L21 48L21 47L22 47L22 46L23 46L23 47L24 47L24 51L23 51L23 50L22 50L22 51L23 51L23 52L24 52L24 53L25 53L25 52L24 52L24 51L28 51L28 52L29 52L29 53L32 53L32 52L33 52L33 53L34 53L34 52L33 52L33 51L30 51L30 52L29 52L29 51L28 51L28 49L30 49L30 50L31 50L31 49L32 49L32 48L33 48L33 49L35 49L35 48L36 48L36 49L37 49L37 48L36 48L36 47L39 47L39 48L38 48L38 49L39 49L39 48L41 48L41 49L40 49L40 50L35 50L35 52L36 52L36 53L37 53L37 52L36 52L36 51L39 51L39 52L38 52L38 53L39 53L39 52L41 52L41 53L42 53L42 52L43 52L43 51L42 51L42 52L41 52L41 50L46 50L46 51L47 51L47 52L45 52L45 51L44 51L44 52L45 52L45 53L48 53L48 52L50 52L50 53L51 53L51 52L52 52L52 51L53 51L53 50L52 50L52 49L53 49L53 48L52 48L52 46L53 46L53 43L52 43L52 44L50 44L50 43L51 43L51 42L52 42L52 39L51 39L51 40L50 40L50 41L51 41L51 42L49 42L49 41L47 41L47 43L46 43L46 39L45 39L45 38L46 38L46 36L47 36L47 35L48 35L48 37L47 37L47 38L48 38L48 40L49 40L49 36L50 36L50 35L51 35L51 36L52 36L52 37L53 37L53 35L51 35L51 33L52 33L52 34L53 34L53 33L52 33L52 32L53 32L53 31L51 31L51 32L50 32L50 30L53 30L53 29L50 29L50 30L49 30L49 26L50 26L50 25L51 25L51 24L50 24L50 23L51 23L51 22L50 22L50 23L49 23L49 24L47 24L47 22L48 22L48 21L52 21L52 22L53 22L53 21L52 21L52 20L53 20L53 19L52 19L52 20L50 20L50 19L51 19L51 18L53 18L53 17L52 17L52 16L53 16L53 15L52 15L52 16L50 16L50 15L49 15L49 16L48 16L48 14L50 14L50 13L51 13L51 14L53 14L53 13L52 13L52 12L50 12L50 11L51 11L51 9L52 9L52 8L51 8L51 9L50 9L50 8L49 8L49 9L48 9L48 8L47 8L47 9L48 9L48 10L45 10L45 11L44 11L44 9L46 9L46 8L44 8L44 9L43 9L43 8L41 8L41 10L43 10L43 12L42 12L42 14L43 14L43 16L44 16L44 17L45 17L45 15L47 15L47 18L43 18L43 17L42 17L42 19L41 19L41 17L40 17L40 16L42 16L42 15L41 15L41 14L40 14L40 15L39 15L39 14L37 14L37 12L38 12L38 11L37 11L37 12L36 12L36 10L38 10L38 9L39 9L39 12L41 12L41 11L40 11L40 9L39 9L39 8L40 8L40 7L41 7L41 6L42 6L42 7L43 7L43 3L44 3L44 4L45 4L45 3L44 3L44 1L43 1L43 0L42 0L42 2L43 2L43 3L42 3L42 4L40 4L40 7L39 7L39 5L38 5L38 2L37 2L37 3L36 3L36 1L38 1L38 0L36 0L36 1L35 1L35 3L34 3L34 1L33 1L33 4L32 4L32 2L31 2L31 0ZM39 0L39 2L40 2L40 3L41 3L41 2L40 2L40 1L41 1L41 0ZM8 1L8 2L9 2L9 1ZM27 1L27 2L26 2L26 3L25 3L25 4L26 4L26 3L27 3L27 4L28 4L28 3L29 3L29 5L30 5L30 6L29 6L29 7L30 7L30 8L29 8L29 9L30 9L30 8L31 8L31 10L27 10L27 11L26 11L26 12L27 12L27 11L28 11L28 12L29 12L29 14L27 14L27 15L26 15L26 14L24 14L24 13L25 13L25 12L24 12L24 11L25 11L25 10L24 10L24 11L23 11L23 10L22 10L22 9L21 9L21 8L20 8L20 9L19 9L19 10L20 10L20 11L19 11L19 13L20 13L20 16L19 16L19 14L18 14L18 13L15 13L15 12L16 12L16 11L15 11L15 10L16 10L16 9L18 9L18 8L16 8L16 9L13 9L13 8L14 8L14 6L13 6L13 8L12 8L12 9L11 9L11 10L12 10L12 9L13 9L13 12L12 12L12 11L10 11L10 12L7 12L7 13L6 13L6 14L8 14L8 13L10 13L10 15L9 15L9 16L7 16L7 17L6 17L6 18L7 18L7 19L8 19L8 18L7 18L7 17L9 17L9 16L10 16L10 18L9 18L9 19L10 19L10 20L11 20L11 22L10 22L10 21L9 21L9 20L7 20L7 21L6 21L6 22L5 22L5 21L4 21L4 22L3 22L3 24L2 24L2 25L3 25L3 24L4 24L4 23L6 23L6 24L7 24L7 23L6 23L6 22L7 22L7 21L8 21L8 22L10 22L10 23L9 23L9 24L10 24L10 25L9 25L9 27L10 27L10 28L9 28L9 29L6 29L6 30L5 30L5 31L4 31L4 32L3 32L3 31L2 31L2 29L3 29L3 30L4 30L4 28L2 28L2 29L1 29L1 32L2 32L2 33L4 33L4 34L3 34L3 36L2 36L2 35L1 35L1 36L2 36L2 37L1 37L1 38L3 38L3 39L4 39L4 41L2 41L2 43L3 43L3 42L4 42L4 41L5 41L5 42L7 42L7 41L8 41L8 39L9 39L9 40L10 40L10 39L11 39L11 38L9 38L9 36L10 36L10 34L11 34L11 36L12 36L12 35L16 35L16 36L18 36L18 35L17 35L17 34L18 34L18 33L21 33L21 32L19 32L19 29L18 29L18 31L17 31L17 29L15 29L15 28L16 28L16 27L15 27L15 26L16 26L16 25L18 25L18 24L17 24L17 23L18 23L18 22L19 22L19 23L20 23L20 25L19 25L19 26L20 26L20 27L19 27L19 28L21 28L21 29L20 29L20 30L21 30L21 29L23 29L23 28L24 28L24 26L23 26L23 27L22 27L22 25L24 25L24 24L22 24L22 23L24 23L24 21L26 21L26 23L25 23L25 24L27 24L27 23L28 23L28 24L29 24L29 23L30 23L30 24L31 24L31 23L34 23L34 25L33 25L33 24L32 24L32 27L33 27L33 28L31 28L31 30L26 30L26 33L27 33L27 32L29 32L29 33L31 33L31 32L32 32L32 33L33 33L33 32L35 32L35 33L34 33L34 34L33 34L33 36L32 36L32 34L29 34L29 35L28 35L28 34L27 34L27 36L26 36L26 34L25 34L25 36L24 36L24 34L23 34L23 33L25 33L25 32L24 32L24 31L25 31L25 30L23 30L23 31L22 31L22 34L23 34L23 35L21 35L21 37L20 37L20 36L19 36L19 37L15 37L15 36L14 36L14 37L13 37L13 38L14 38L14 37L15 37L15 40L16 40L16 41L13 41L13 40L14 40L14 39L12 39L12 42L11 42L11 41L9 41L9 42L10 42L10 43L12 43L12 44L9 44L9 45L10 45L10 47L11 47L11 45L12 45L12 48L13 48L13 49L14 49L14 48L13 48L13 44L14 44L14 47L15 47L15 46L16 46L16 47L17 47L17 48L18 48L18 49L21 49L21 48L20 48L20 46L21 46L21 45L24 45L24 44L23 44L23 43L25 43L25 44L29 44L29 45L33 45L33 46L29 46L29 48L30 48L30 49L31 49L31 48L32 48L32 47L34 47L34 46L39 46L39 45L40 45L40 46L41 46L41 47L42 47L42 49L43 49L43 48L44 48L44 44L43 44L43 43L45 43L45 44L46 44L46 43L45 43L45 39L44 39L44 36L43 36L43 39L42 39L42 35L45 35L45 31L44 31L44 30L45 30L45 29L44 29L44 30L42 30L42 29L41 29L41 28L42 28L42 26L40 26L40 25L44 25L44 24L46 24L46 22L47 22L47 21L48 21L48 20L49 20L49 19L50 19L50 18L51 18L51 17L48 17L48 19L47 19L47 21L46 21L46 22L45 22L45 21L44 21L44 19L42 19L42 20L43 20L43 22L42 22L42 21L41 21L41 20L40 20L40 21L38 21L38 18L39 18L39 17L37 17L37 19L36 19L36 18L35 18L35 17L36 17L36 16L37 16L37 14L36 14L36 15L35 15L35 13L36 13L36 12L35 12L35 13L33 13L33 11L35 11L35 9L34 9L34 8L36 8L36 5L35 5L35 4L36 4L36 3L35 3L35 4L34 4L34 6L33 6L33 5L30 5L30 1ZM27 2L27 3L28 3L28 2ZM10 5L10 6L9 6L9 7L10 7L10 6L11 6L11 7L12 7L12 6L11 6L11 5ZM15 5L15 7L16 7L16 5ZM25 5L25 8L28 8L28 5ZM22 6L22 7L23 7L23 6ZM26 6L26 7L27 7L27 6ZM30 6L30 7L31 7L31 6ZM32 6L32 8L34 8L34 7L35 7L35 6L34 6L34 7L33 7L33 6ZM37 6L37 8L38 8L38 6ZM44 6L44 7L45 7L45 6ZM0 8L0 9L1 9L1 10L2 10L2 9L3 9L3 10L4 10L4 9L5 9L5 8ZM32 9L32 11L33 11L33 9ZM17 10L17 12L18 12L18 10ZM21 10L21 12L20 12L20 13L21 13L21 14L23 14L23 13L24 13L24 12L23 12L23 11L22 11L22 10ZM0 11L0 12L1 12L1 11ZM2 11L2 14L3 14L3 11ZM14 11L14 12L13 12L13 13L14 13L14 14L15 14L15 13L14 13L14 12L15 12L15 11ZM47 11L47 12L45 12L45 13L43 13L43 14L44 14L44 15L45 15L45 14L47 14L47 12L49 12L49 11ZM10 12L10 13L11 13L11 15L10 15L10 16L11 16L11 17L12 17L12 16L11 16L11 15L13 15L13 16L14 16L14 15L13 15L13 14L12 14L12 12ZM21 12L21 13L23 13L23 12ZM31 12L31 13L30 13L30 14L31 14L31 13L32 13L32 15L31 15L31 16L35 16L35 15L34 15L34 14L33 14L33 13L32 13L32 12ZM16 14L16 16L17 16L17 17L18 17L18 18L20 18L20 19L19 19L19 20L18 20L18 19L17 19L17 20L16 20L16 19L15 19L15 21L14 21L14 17L13 17L13 19L11 19L11 20L13 20L13 21L14 21L14 22L11 22L11 23L14 23L14 24L12 24L12 25L11 25L11 26L10 26L10 27L11 27L11 26L13 26L13 25L16 25L16 23L17 23L17 22L18 22L18 21L19 21L19 22L20 22L20 21L21 21L21 22L23 22L23 21L21 21L21 17L22 17L22 18L23 18L23 19L24 19L24 20L26 20L26 21L28 21L28 22L30 22L30 23L31 23L31 22L32 22L32 21L31 21L31 19L32 19L32 18L31 18L31 17L30 17L30 15L29 15L29 17L28 17L28 15L27 15L27 16L26 16L26 15L24 15L24 16L23 16L23 15L21 15L21 17L18 17L18 16L17 16L17 15L18 15L18 14ZM38 15L38 16L39 16L39 15ZM22 16L22 17L23 17L23 16ZM25 16L25 17L24 17L24 19L26 19L26 20L27 20L27 19L28 19L28 21L30 21L30 19L31 19L31 18L27 18L27 17L26 17L26 16ZM15 17L15 18L16 18L16 17ZM33 17L33 18L34 18L34 19L35 19L35 18L34 18L34 17ZM26 18L26 19L27 19L27 18ZM45 19L45 20L46 20L46 19ZM19 20L19 21L20 21L20 20ZM34 20L34 21L35 21L35 20ZM36 20L36 22L37 22L37 20ZM15 21L15 22L17 22L17 21ZM40 21L40 22L38 22L38 23L37 23L37 24L36 24L36 23L35 23L35 22L34 22L34 23L35 23L35 24L36 24L36 25L35 25L35 26L36 26L36 27L35 27L35 28L36 28L36 31L35 31L35 30L33 30L33 31L32 31L32 32L33 32L33 31L35 31L35 32L36 32L36 33L35 33L35 34L34 34L34 35L35 35L35 36L36 36L36 37L35 37L35 38L34 38L34 39L33 39L33 37L32 37L32 40L31 40L31 41L30 41L30 39L29 39L29 40L28 40L28 38L27 38L27 37L26 37L26 38L27 38L27 39L26 39L26 40L27 40L27 41L26 41L26 42L27 42L27 43L28 43L28 41L29 41L29 42L32 42L32 40L33 40L33 43L31 43L31 44L34 44L34 45L35 45L35 44L34 44L34 41L35 41L35 40L36 40L36 43L39 43L39 44L41 44L41 42L43 42L43 41L42 41L42 39L39 39L39 38L37 38L37 36L36 36L36 35L39 35L39 36L38 36L38 37L39 37L39 36L41 36L41 34L44 34L44 33L39 33L39 32L41 32L41 31L42 31L42 32L44 32L44 31L42 31L42 30L41 30L41 29L40 29L40 30L37 30L37 28L36 28L36 27L39 27L39 28L41 28L41 27L39 27L39 26L37 26L37 25L38 25L38 24L39 24L39 25L40 25L40 24L41 24L41 23L42 23L42 22L41 22L41 21ZM0 22L0 23L1 23L1 22ZM44 22L44 23L43 23L43 24L44 24L44 23L45 23L45 22ZM39 23L39 24L40 24L40 23ZM21 24L21 25L22 25L22 24ZM49 24L49 25L50 25L50 24ZM5 25L5 28L8 28L8 25ZM25 25L25 28L28 28L28 25ZM45 25L45 28L48 28L48 25ZM52 25L52 26L53 26L53 25ZM3 26L3 27L4 27L4 26ZM6 26L6 27L7 27L7 26ZM26 26L26 27L27 27L27 26ZM29 26L29 28L30 28L30 27L31 27L31 26ZM46 26L46 27L47 27L47 26ZM13 27L13 29L14 29L14 30L15 30L15 29L14 29L14 27ZM43 27L43 28L44 28L44 27ZM10 28L10 32L9 32L9 33L10 33L10 32L11 32L11 33L12 33L12 32L11 32L11 31L12 31L12 28ZM46 29L46 31L47 31L47 33L49 33L49 34L48 34L48 35L50 35L50 33L49 33L49 31L48 31L48 30L47 30L47 29ZM6 30L6 31L5 31L5 32L4 32L4 33L5 33L5 34L4 34L4 35L5 35L5 36L3 36L3 38L4 38L4 39L7 39L7 38L4 38L4 37L5 37L5 36L6 36L6 37L8 37L8 36L9 36L9 34L8 34L8 31L9 31L9 30L8 30L8 31L7 31L7 30ZM40 30L40 31L41 31L41 30ZM6 31L6 32L5 32L5 33L6 33L6 34L7 34L7 33L6 33L6 32L7 32L7 31ZM13 31L13 32L14 32L14 31ZM16 31L16 32L17 32L17 33L18 33L18 32L17 32L17 31ZM30 31L30 32L31 32L31 31ZM36 31L36 32L37 32L37 33L36 33L36 34L39 34L39 35L40 35L40 34L39 34L39 33L38 33L38 32L39 32L39 31ZM13 33L13 34L14 34L14 33ZM15 33L15 34L16 34L16 33ZM19 34L19 35L20 35L20 34ZM46 34L46 35L47 35L47 34ZM6 35L6 36L8 36L8 35ZM29 35L29 36L30 36L30 35ZM23 36L23 37L22 37L22 39L20 39L20 40L19 40L19 38L20 38L20 37L19 37L19 38L18 38L18 39L17 39L17 38L16 38L16 40L18 40L18 41L16 41L16 42L15 42L15 43L14 43L14 44L15 44L15 45L17 45L17 44L18 44L18 45L19 45L19 46L20 46L20 45L19 45L19 43L20 43L20 42L19 42L19 41L20 41L20 40L22 40L22 41L21 41L21 42L22 42L22 41L25 41L25 37L24 37L24 36ZM29 37L29 38L31 38L31 37ZM23 38L23 40L24 40L24 38ZM36 38L36 40L37 40L37 42L41 42L41 40L39 40L39 39L37 39L37 38ZM34 39L34 40L35 40L35 39ZM43 39L43 40L44 40L44 39ZM6 40L6 41L7 41L7 40ZM17 42L17 43L18 43L18 42ZM15 43L15 44L16 44L16 43ZM36 44L36 45L37 45L37 44ZM49 44L49 49L46 49L46 50L47 50L47 51L48 51L48 50L49 50L49 51L50 51L50 52L51 52L51 51L52 51L52 50L50 50L50 48L51 48L51 45L50 45L50 44ZM25 45L25 48L28 48L28 45ZM41 45L41 46L42 46L42 47L43 47L43 45ZM45 45L45 48L48 48L48 45ZM17 46L17 47L18 47L18 46ZM26 46L26 47L27 47L27 46ZM46 46L46 47L47 47L47 46ZM25 49L25 50L27 50L27 49ZM19 50L19 51L20 51L20 50ZM0 0L0 7L7 7L7 0ZM1 1L1 6L6 6L6 1ZM2 2L2 5L5 5L5 2ZM46 0L46 7L53 7L53 0ZM47 1L47 6L52 6L52 1ZM48 2L48 5L51 5L51 2ZM0 46L0 53L7 53L7 46ZM1 47L1 52L6 52L6 47ZM2 48L2 51L5 51L5 48Z" fill="#000000"/></g></g></svg>
