<?xml version="1.0" encoding="UTF-8"?>
<svg xmlns="http://www.w3.org/2000/svg" version="1.1" width="300" height="300" viewBox="0 0 300 300"><rect x="0" y="0" width="300" height="300" fill="#ffffff"/><g transform="scale(5.882)"><g transform="translate(1,1)"><path fill-rule="evenodd" d="M9 0L9 1L10 1L10 2L9 2L9 3L8 3L8 5L11 5L11 6L10 6L10 7L9 7L9 6L8 6L8 7L9 7L9 8L10 8L10 9L9 9L9 10L8 10L8 11L7 11L7 10L6 10L6 11L7 11L7 12L6 12L6 13L4 13L4 10L5 10L5 9L8 9L8 8L5 8L5 9L4 9L4 10L2 10L2 8L0 8L0 9L1 9L1 11L0 11L0 14L1 14L1 15L4 15L4 16L2 16L2 17L1 17L1 16L0 16L0 17L1 17L1 20L0 20L0 21L4 21L4 20L5 20L5 21L7 21L7 22L4 22L4 23L3 23L3 22L0 22L0 24L1 24L1 26L0 26L0 27L1 27L1 29L2 29L2 30L0 30L0 33L4 33L4 34L5 34L5 36L4 36L4 37L3 37L3 38L5 38L5 39L7 39L7 40L6 40L6 41L7 41L7 40L8 40L8 44L9 44L9 42L10 42L10 46L11 46L11 47L12 47L12 48L10 48L10 47L8 47L8 49L9 49L9 48L10 48L10 49L12 49L12 48L13 48L13 49L17 49L17 48L18 48L18 49L20 49L20 48L22 48L22 49L23 49L23 48L22 48L22 46L21 46L21 44L20 44L20 45L19 45L19 42L20 42L20 41L22 41L22 42L21 42L21 43L22 43L22 45L27 45L27 44L28 44L28 43L29 43L29 44L30 44L30 45L28 45L28 48L27 48L27 49L29 49L29 46L30 46L30 49L31 49L31 44L33 44L33 45L32 45L32 46L33 46L33 45L34 45L34 47L35 47L35 48L33 48L33 47L32 47L32 49L40 49L40 48L41 48L41 49L42 49L42 48L43 48L43 49L46 49L46 46L48 46L48 45L49 45L49 42L48 42L48 45L47 45L47 44L45 44L45 43L47 43L47 42L45 42L45 40L46 40L46 41L49 41L49 34L47 34L47 37L48 37L48 38L47 38L47 39L44 39L44 38L42 38L42 37L41 37L41 36L42 36L42 35L43 35L43 37L44 37L44 36L46 36L46 35L44 35L44 34L45 34L45 32L46 32L46 33L48 33L48 32L46 32L46 31L45 31L45 30L44 30L44 29L43 29L43 28L42 28L42 29L43 29L43 30L42 30L42 31L45 31L45 32L44 32L44 34L43 34L43 32L41 32L41 29L40 29L40 27L44 27L44 28L45 28L45 29L46 29L46 30L48 30L48 31L49 31L49 30L48 30L48 28L47 28L47 27L49 27L49 26L48 26L48 25L49 25L49 22L48 22L48 21L49 21L49 18L48 18L48 20L46 20L46 19L47 19L47 18L46 18L46 17L47 17L47 16L48 16L48 17L49 17L49 16L48 16L48 15L49 15L49 14L47 14L47 13L49 13L49 10L47 10L47 9L46 9L46 8L44 8L44 9L41 9L41 8L38 8L38 7L39 7L39 5L38 5L38 3L36 3L36 4L37 4L37 6L36 6L36 7L35 7L35 6L34 6L34 8L33 8L33 6L32 6L32 8L31 8L31 6L30 6L30 7L29 7L29 2L30 2L30 3L32 3L32 4L30 4L30 5L32 5L32 4L33 4L33 3L34 3L34 4L35 4L35 3L34 3L34 2L35 2L35 1L36 1L36 2L39 2L39 4L40 4L40 3L41 3L41 0L40 0L40 1L38 1L38 0L33 0L33 1L32 1L32 0L30 0L30 1L29 1L29 2L28 2L28 1L27 1L27 0L25 0L25 1L27 1L27 3L26 3L26 2L25 2L25 3L22 3L22 2L24 2L24 1L23 1L23 0L22 0L22 2L21 2L21 6L20 6L20 7L21 7L21 8L19 8L19 5L18 5L18 4L20 4L20 3L19 3L19 2L18 2L18 4L17 4L17 3L16 3L16 7L15 7L15 5L14 5L14 4L15 4L15 3L14 3L14 2L13 2L13 1L14 1L14 0L11 0L11 1L10 1L10 0ZM16 0L16 1L17 1L17 0ZM20 0L20 1L21 1L21 0ZM11 1L11 5L12 5L12 6L11 6L11 7L10 7L10 8L11 8L11 11L13 11L13 14L11 14L11 12L10 12L10 10L9 10L9 12L7 12L7 13L6 13L6 14L4 14L4 15L5 15L5 16L4 16L4 18L5 18L5 20L7 20L7 21L8 21L8 22L9 22L9 23L10 23L10 24L9 24L9 31L8 31L8 28L7 28L7 27L6 27L6 28L5 28L5 29L4 29L4 28L2 28L2 29L3 29L3 30L2 30L2 31L1 31L1 32L2 32L2 31L3 31L3 32L7 32L7 33L6 33L6 34L7 34L7 33L8 33L8 36L7 36L7 35L6 35L6 36L5 36L5 37L6 37L6 38L7 38L7 37L8 37L8 36L10 36L10 38L9 38L9 39L8 39L8 40L9 40L9 39L10 39L10 40L11 40L11 39L12 39L12 40L13 40L13 41L15 41L15 42L13 42L13 44L14 44L14 43L15 43L15 42L17 42L17 43L16 43L16 44L15 44L15 46L16 46L16 44L17 44L17 45L18 45L18 46L17 46L17 47L16 47L16 48L17 48L17 47L18 47L18 46L19 46L19 45L18 45L18 44L17 44L17 43L18 43L18 42L19 42L19 41L20 41L20 40L21 40L21 39L22 39L22 37L23 37L23 35L22 35L22 33L25 33L25 34L24 34L24 36L25 36L25 35L27 35L27 36L29 36L29 37L30 37L30 36L29 36L29 35L31 35L31 34L34 34L34 35L35 35L35 37L34 37L34 36L33 36L33 38L32 38L32 37L31 37L31 40L32 40L32 42L30 42L30 39L29 39L29 38L28 38L28 37L25 37L25 38L26 38L26 39L25 39L25 40L26 40L26 39L27 39L27 42L29 42L29 43L32 43L32 42L33 42L33 44L37 44L37 43L34 43L34 42L38 42L38 43L39 43L39 44L40 44L40 43L39 43L39 42L40 42L40 41L38 41L38 40L44 40L44 39L40 39L40 38L41 38L41 37L40 37L40 38L39 38L39 36L40 36L40 35L36 35L36 32L37 32L37 34L38 34L38 33L39 33L39 32L37 32L37 30L36 30L36 32L35 32L35 29L34 29L34 28L33 28L33 27L34 27L34 26L35 26L35 28L37 28L37 29L38 29L38 30L40 30L40 29L38 29L38 28L39 28L39 27L38 27L38 26L39 26L39 25L38 25L38 24L40 24L40 22L38 22L38 21L40 21L40 20L42 20L42 21L43 21L43 22L44 22L44 21L45 21L45 22L46 22L46 24L47 24L47 25L45 25L45 26L47 26L47 25L48 25L48 24L47 24L47 22L46 22L46 20L45 20L45 16L46 16L46 15L47 15L47 14L46 14L46 12L47 12L47 10L46 10L46 9L44 9L44 10L45 10L45 11L46 11L46 12L45 12L45 13L44 13L44 11L43 11L43 10L41 10L41 12L40 12L40 14L39 14L39 13L38 13L38 14L37 14L37 13L36 13L36 14L37 14L37 15L35 15L35 11L33 11L33 12L34 12L34 16L33 16L33 14L32 14L32 15L30 15L30 16L29 16L29 13L30 13L30 12L31 12L31 10L34 10L34 9L36 9L36 8L37 8L37 7L38 7L38 6L37 6L37 7L36 7L36 8L34 8L34 9L33 9L33 8L32 8L32 9L31 9L31 10L29 10L29 8L28 8L28 4L27 4L27 12L26 12L26 11L25 11L25 9L22 9L22 8L21 8L21 12L19 12L19 13L18 13L18 14L17 14L17 13L16 13L16 12L17 12L17 11L18 11L18 10L19 10L19 9L17 9L17 11L16 11L16 10L15 10L15 9L16 9L16 8L15 8L15 7L14 7L14 5L13 5L13 4L14 4L14 3L13 3L13 2L12 2L12 1ZM30 1L30 2L32 2L32 1ZM12 3L12 4L13 4L13 3ZM17 5L17 8L18 8L18 5ZM23 5L23 8L26 8L26 5ZM12 6L12 7L11 7L11 8L12 8L12 9L14 9L14 7L13 7L13 6ZM21 6L21 7L22 7L22 6ZM24 6L24 7L25 7L25 6ZM40 6L40 7L41 7L41 6ZM12 7L12 8L13 8L13 7ZM13 10L13 11L14 11L14 12L15 12L15 10ZM22 10L22 11L23 11L23 10ZM28 10L28 13L27 13L27 15L25 15L25 14L26 14L26 12L24 12L24 13L25 13L25 14L24 14L24 15L25 15L25 16L23 16L23 14L21 14L21 15L20 15L20 17L19 17L19 15L16 15L16 17L14 17L14 16L13 16L13 17L14 17L14 18L12 18L12 17L11 17L11 18L10 18L10 16L8 16L8 15L7 15L7 14L8 14L8 13L7 13L7 14L6 14L6 15L7 15L7 16L5 16L5 18L6 18L6 19L7 19L7 18L6 18L6 17L9 17L9 19L8 19L8 20L9 20L9 22L10 22L10 23L11 23L11 24L10 24L10 26L11 26L11 27L10 27L10 28L11 28L11 27L12 27L12 29L16 29L16 28L18 28L18 29L17 29L17 30L13 30L13 31L12 31L12 30L11 30L11 29L10 29L10 30L11 30L11 31L12 31L12 32L13 32L13 33L9 33L9 34L11 34L11 35L12 35L12 34L13 34L13 33L14 33L14 32L15 32L15 35L16 35L16 36L17 36L17 38L16 38L16 39L15 39L15 38L14 38L14 37L15 37L15 36L14 36L14 35L13 35L13 36L11 36L11 38L10 38L10 39L11 39L11 38L12 38L12 37L13 37L13 38L14 38L14 39L13 39L13 40L15 40L15 41L16 41L16 40L17 40L17 38L18 38L18 41L17 41L17 42L18 42L18 41L19 41L19 40L20 40L20 39L21 39L21 38L20 38L20 36L21 36L21 37L22 37L22 36L21 36L21 35L20 35L20 36L19 36L19 34L17 34L17 33L16 33L16 32L18 32L18 33L19 33L19 32L20 32L20 34L21 34L21 33L22 33L22 32L20 32L20 31L21 31L21 30L20 30L20 31L19 31L19 30L18 30L18 29L21 29L21 27L23 27L23 28L24 28L24 27L25 27L25 28L26 28L26 30L25 30L25 29L23 29L23 30L24 30L24 32L25 32L25 31L26 31L26 32L29 32L29 31L28 31L28 30L29 30L29 29L28 29L28 30L27 30L27 28L29 28L29 27L30 27L30 28L32 28L32 26L33 26L33 25L37 25L37 26L36 26L36 27L37 27L37 26L38 26L38 25L37 25L37 24L36 24L36 22L35 22L35 21L38 21L38 20L35 20L35 19L34 19L34 21L32 21L32 22L33 22L33 23L30 23L30 22L31 22L31 20L33 20L33 18L32 18L32 16L31 16L31 17L29 17L29 18L28 18L28 17L27 17L27 19L28 19L28 20L29 20L29 21L28 21L28 22L27 22L27 20L23 20L23 22L22 22L22 24L21 24L21 21L22 21L22 19L23 19L23 18L20 18L20 17L22 17L22 16L23 16L23 17L25 17L25 16L27 16L27 15L28 15L28 13L29 13L29 12L30 12L30 11L29 11L29 10ZM36 10L36 12L37 12L37 11L38 11L38 12L39 12L39 11L38 11L38 10ZM1 11L1 13L2 13L2 14L3 14L3 13L2 13L2 12L3 12L3 11ZM9 12L9 14L10 14L10 12ZM21 12L21 13L22 13L22 12ZM42 12L42 13L41 13L41 14L40 14L40 16L39 16L39 14L38 14L38 15L37 15L37 16L36 16L36 17L37 17L37 18L36 18L36 19L38 19L38 17L39 17L39 18L40 18L40 19L42 19L42 18L43 18L43 17L44 17L44 16L42 16L42 15L41 15L41 14L43 14L43 15L44 15L44 14L43 14L43 12ZM13 14L13 15L15 15L15 14ZM21 15L21 16L22 16L22 15ZM2 17L2 19L3 19L3 20L4 20L4 19L3 19L3 17ZM16 17L16 18L15 18L15 19L14 19L14 20L13 20L13 19L12 19L12 18L11 18L11 20L10 20L10 21L11 21L11 20L12 20L12 21L15 21L15 19L16 19L16 22L17 22L17 21L18 21L18 23L17 23L17 24L16 24L16 27L18 27L18 28L20 28L20 27L21 27L21 25L20 25L20 26L19 26L19 25L18 25L18 24L20 24L20 19L16 19L16 18L19 18L19 17ZM40 17L40 18L41 18L41 17ZM30 18L30 19L32 19L32 18ZM43 19L43 21L44 21L44 19ZM18 20L18 21L19 21L19 20ZM29 21L29 22L28 22L28 23L27 23L27 26L28 26L28 27L29 27L29 26L30 26L30 27L31 27L31 26L30 26L30 25L32 25L32 24L29 24L29 26L28 26L28 23L29 23L29 22L30 22L30 21ZM11 22L11 23L12 23L12 24L13 24L13 25L11 25L11 26L13 26L13 25L14 25L14 24L15 24L15 22ZM34 22L34 23L33 23L33 24L35 24L35 22ZM2 23L2 26L1 26L1 27L4 27L4 25L3 25L3 23ZM5 23L5 26L8 26L8 23ZM13 23L13 24L14 24L14 23ZM23 23L23 26L26 26L26 23ZM41 23L41 26L44 26L44 23ZM6 24L6 25L7 25L7 24ZM24 24L24 25L25 25L25 24ZM42 24L42 25L43 25L43 24ZM18 26L18 27L19 27L19 26ZM13 27L13 28L15 28L15 27ZM6 28L6 29L7 29L7 28ZM30 29L30 30L31 30L31 29ZM32 29L32 32L31 32L31 33L30 33L30 34L31 34L31 33L32 33L32 32L34 32L34 30L33 30L33 29ZM3 30L3 31L4 31L4 30ZM5 30L5 31L7 31L7 32L8 32L8 31L7 31L7 30ZM17 30L17 31L18 31L18 32L19 32L19 31L18 31L18 30ZM9 31L9 32L10 32L10 31ZM15 31L15 32L16 32L16 31ZM26 33L26 34L28 34L28 35L29 35L29 34L28 34L28 33ZM34 33L34 34L35 34L35 33ZM40 33L40 34L41 34L41 33ZM0 34L0 37L2 37L2 34ZM17 35L17 36L18 36L18 35ZM6 36L6 37L7 37L7 36ZM36 36L36 37L35 37L35 38L34 38L34 39L35 39L35 40L33 40L33 42L34 42L34 41L35 41L35 40L36 40L36 41L37 41L37 40L36 40L36 39L35 39L35 38L36 38L36 37L37 37L37 38L38 38L38 39L39 39L39 38L38 38L38 36ZM18 37L18 38L19 38L19 39L20 39L20 38L19 38L19 37ZM45 37L45 38L46 38L46 37ZM1 38L1 40L0 40L0 41L3 41L3 40L4 40L4 39L2 39L2 38ZM23 38L23 40L24 40L24 38ZM23 41L23 44L26 44L26 41ZM41 41L41 44L44 44L44 41ZM24 42L24 43L25 43L25 42ZM42 42L42 43L43 43L43 42ZM11 43L11 44L12 44L12 43ZM11 45L11 46L12 46L12 45ZM13 45L13 48L14 48L14 45ZM36 45L36 48L39 48L39 47L38 47L38 46L37 46L37 45ZM39 45L39 46L40 46L40 47L41 47L41 48L42 48L42 46L40 46L40 45ZM43 45L43 48L45 48L45 45ZM23 46L23 47L24 47L24 48L25 48L25 49L26 49L26 48L25 48L25 46ZM26 46L26 47L27 47L27 46ZM48 47L48 49L49 49L49 47ZM0 0L0 7L7 7L7 0ZM1 1L1 6L6 6L6 1ZM2 2L2 5L5 5L5 2ZM42 0L42 7L49 7L49 0ZM43 1L43 6L48 6L48 1ZM44 2L44 5L47 5L47 2ZM0 42L0 49L7 49L7 42ZM1 43L1 48L6 48L6 43ZM2 44L2 47L5 47L5 44Z" fill="#000000"/></g></g></svg>
