<?xml version="1.0" encoding="UTF-8"?>
<svg xmlns="http://www.w3.org/2000/svg" version="1.1" width="300" height="300" viewBox="0 0 300 300"><rect x="0" y="0" width="300" height="300" fill="#ffffff"/><g transform="scale(5.882)"><g transform="translate(1,1)"><path fill-rule="evenodd" d="M11 0L11 1L8 1L8 3L10 3L10 4L8 4L8 8L6 8L6 9L4 9L4 8L3 8L3 9L2 9L2 8L0 8L0 11L1 11L1 9L2 9L2 12L3 12L3 11L4 11L4 12L5 12L5 13L7 13L7 14L6 14L6 15L5 15L5 18L4 18L4 17L3 17L3 18L4 18L4 19L2 19L2 18L1 18L1 17L2 17L2 15L0 15L0 16L1 16L1 17L0 17L0 20L1 20L1 21L2 21L2 22L0 22L0 25L1 25L1 26L2 26L2 28L3 28L3 25L4 25L4 27L5 27L5 28L6 28L6 29L4 29L4 30L2 30L2 31L0 31L0 32L4 32L4 33L1 33L1 34L2 34L2 35L0 35L0 37L1 37L1 40L0 40L0 41L3 41L3 40L4 40L4 39L2 39L2 38L3 38L3 34L5 34L5 35L8 35L8 36L5 36L5 37L7 37L7 38L5 38L5 39L7 39L7 40L6 40L6 41L8 41L8 43L9 43L9 45L8 45L8 46L9 46L9 47L8 47L8 49L10 49L10 48L9 48L9 47L10 47L10 45L12 45L12 46L13 46L13 47L11 47L11 48L13 48L13 49L16 49L16 44L17 44L17 45L18 45L18 47L19 47L19 48L17 48L17 49L19 49L19 48L21 48L21 49L24 49L24 48L22 48L22 47L21 47L21 46L23 46L23 47L26 47L26 48L27 48L27 49L31 49L31 48L32 48L32 49L33 49L33 48L34 48L34 49L38 49L38 48L39 48L39 49L40 49L40 46L41 46L41 45L43 45L43 46L42 46L42 47L43 47L43 48L44 48L44 49L45 49L45 47L46 47L46 45L45 45L45 44L47 44L47 45L48 45L48 46L49 46L49 44L47 44L47 43L49 43L49 41L47 41L47 40L49 40L49 38L48 38L48 37L49 37L49 33L46 33L46 32L49 32L49 29L47 29L47 28L46 28L46 30L47 30L47 31L46 31L46 32L44 32L44 33L43 33L43 30L42 30L42 29L44 29L44 31L45 31L45 28L44 28L44 27L45 27L45 26L47 26L47 27L49 27L49 24L48 24L48 23L49 23L49 21L48 21L48 20L49 20L49 12L48 12L48 13L47 13L47 12L44 12L44 11L46 11L46 9L48 9L48 8L46 8L46 9L45 9L45 8L42 8L42 9L45 9L45 10L44 10L44 11L42 11L42 10L38 10L38 9L39 9L39 8L41 8L41 6L40 6L40 7L39 7L39 5L38 5L38 8L37 8L37 5L36 5L36 8L35 8L35 6L34 6L34 3L35 3L35 4L36 4L36 1L35 1L35 0L34 0L34 1L35 1L35 2L34 2L34 3L33 3L33 2L32 2L32 1L33 1L33 0L28 0L28 1L27 1L27 0L25 0L25 1L24 1L24 0L20 0L20 1L21 1L21 2L22 2L22 1L24 1L24 2L25 2L25 3L26 3L26 2L29 2L29 3L31 3L31 4L30 4L30 8L28 8L28 7L29 7L29 4L24 4L24 3L19 3L19 4L20 4L20 5L21 5L21 6L20 6L20 7L19 7L19 6L18 6L18 9L17 9L17 12L18 12L18 14L17 14L17 13L16 13L16 12L15 12L15 11L16 11L16 10L15 10L15 11L14 11L14 8L15 8L15 6L16 6L16 8L17 8L17 5L15 5L15 6L14 6L14 5L12 5L12 4L14 4L14 3L16 3L16 4L17 4L17 3L18 3L18 2L19 2L19 1L18 1L18 0L16 0L16 2L14 2L14 1L15 1L15 0L14 0L14 1L13 1L13 2L11 2L11 1L12 1L12 0ZM40 0L40 1L37 1L37 2L39 2L39 4L40 4L40 3L41 3L41 0ZM17 1L17 2L16 2L16 3L17 3L17 2L18 2L18 1ZM25 1L25 2L26 2L26 1ZM10 2L10 3L11 3L11 4L12 4L12 3L11 3L11 2ZM32 3L32 4L31 4L31 5L32 5L32 4L33 4L33 3ZM21 4L21 5L22 5L22 4ZM9 5L9 8L8 8L8 9L6 9L6 10L4 10L4 9L3 9L3 10L4 10L4 11L5 11L5 12L7 12L7 13L8 13L8 11L9 11L9 9L10 9L10 12L11 12L11 13L12 13L12 15L11 15L11 16L12 16L12 17L11 17L11 18L13 18L13 17L14 17L14 19L12 19L12 20L11 20L11 19L10 19L10 18L8 18L8 17L9 17L9 16L10 16L10 14L9 14L9 16L8 16L8 14L7 14L7 15L6 15L6 16L8 16L8 17L6 17L6 18L5 18L5 19L4 19L4 20L2 20L2 19L1 19L1 20L2 20L2 21L5 21L5 19L6 19L6 20L7 20L7 21L6 21L6 22L9 22L9 25L11 25L11 26L10 26L10 27L8 27L8 28L7 28L7 27L6 27L6 28L7 28L7 29L6 29L6 30L5 30L5 31L4 31L4 32L5 32L5 34L11 34L11 35L10 35L10 37L9 37L9 36L8 36L8 37L9 37L9 39L8 39L8 41L10 41L10 40L11 40L11 41L12 41L12 42L10 42L10 43L11 43L11 44L12 44L12 43L14 43L14 44L13 44L13 46L14 46L14 47L13 47L13 48L14 48L14 47L15 47L15 43L18 43L18 44L19 44L19 43L20 43L20 41L21 41L21 43L22 43L22 39L23 39L23 40L25 40L25 38L26 38L26 40L27 40L27 39L28 39L28 38L29 38L29 39L31 39L31 40L28 40L28 41L30 41L30 44L31 44L31 45L29 45L29 46L28 46L28 47L29 47L29 46L31 46L31 45L32 45L32 46L33 46L33 45L34 45L34 46L36 46L36 47L35 47L35 48L36 48L36 47L37 47L37 48L38 48L38 47L39 47L39 45L40 45L40 44L39 44L39 45L37 45L37 46L36 46L36 44L31 44L31 42L32 42L32 43L33 43L33 42L32 42L32 41L31 41L31 40L32 40L32 39L33 39L33 38L32 38L32 36L34 36L34 35L31 35L31 34L33 34L33 32L35 32L35 33L34 33L34 34L35 34L35 36L36 36L36 34L38 34L38 35L39 35L39 36L37 36L37 37L38 37L38 38L36 38L36 37L35 37L35 38L34 38L34 40L33 40L33 41L34 41L34 43L35 43L35 38L36 38L36 39L37 39L37 40L38 40L38 41L37 41L37 43L40 43L40 42L38 42L38 41L40 41L40 40L38 40L38 38L40 38L40 39L42 39L42 40L43 40L43 39L42 39L42 38L44 38L44 39L45 39L45 41L46 41L46 42L45 42L45 43L46 43L46 42L47 42L47 41L46 41L46 40L47 40L47 39L48 39L48 38L47 38L47 39L46 39L46 37L48 37L48 36L47 36L47 34L46 34L46 35L44 35L44 34L45 34L45 33L44 33L44 34L43 34L43 33L42 33L42 32L41 32L41 31L42 31L42 30L41 30L41 31L38 31L38 29L40 29L40 24L39 24L39 25L38 25L38 23L37 23L37 22L36 22L36 23L37 23L37 25L36 25L36 24L35 24L35 21L36 21L36 20L35 20L35 19L37 19L37 20L38 20L38 22L43 22L43 20L40 20L40 21L39 21L39 19L44 19L44 22L45 22L45 20L46 20L46 23L45 23L45 25L47 25L47 26L48 26L48 25L47 25L47 22L48 22L48 21L47 21L47 20L46 20L46 18L47 18L47 19L48 19L48 14L47 14L47 15L46 15L46 14L45 14L45 13L41 13L41 12L42 12L42 11L41 11L41 12L40 12L40 11L39 11L39 13L38 13L38 11L37 11L37 13L38 13L38 14L37 14L37 15L38 15L38 14L40 14L40 16L38 16L38 17L37 17L37 18L36 18L36 16L35 16L35 15L36 15L36 12L35 12L35 11L36 11L36 10L37 10L37 9L36 9L36 10L35 10L35 9L34 9L34 8L32 8L32 6L31 6L31 8L30 8L30 9L28 9L28 8L27 8L27 9L24 9L24 10L23 10L23 11L22 11L22 12L19 12L19 11L18 11L18 12L19 12L19 13L20 13L20 14L18 14L18 16L17 16L17 15L15 15L15 13L14 13L14 12L13 12L13 13L12 13L12 12L11 12L11 11L13 11L13 10L12 10L12 8L14 8L14 6L13 6L13 7L12 7L12 5ZM23 5L23 8L26 8L26 5ZM10 6L10 7L11 7L11 6ZM21 6L21 9L20 9L20 8L19 8L19 9L18 9L18 10L19 10L19 9L20 9L20 11L21 11L21 9L22 9L22 6ZM24 6L24 7L25 7L25 6ZM27 6L27 7L28 7L28 6ZM33 6L33 7L34 7L34 6ZM10 8L10 9L11 9L11 8ZM31 8L31 11L27 11L27 13L28 13L28 16L29 16L29 18L28 18L28 17L27 17L27 16L23 16L23 18L22 18L22 17L20 17L20 18L19 18L19 16L21 16L21 15L19 15L19 16L18 16L18 17L17 17L17 16L14 16L14 14L13 14L13 15L12 15L12 16L14 16L14 17L17 17L17 18L15 18L15 19L14 19L14 20L12 20L12 21L10 21L10 22L14 22L14 24L13 24L13 23L11 23L11 25L12 25L12 24L13 24L13 26L15 26L15 27L16 27L16 28L13 28L13 27L12 27L12 26L11 26L11 28L10 28L10 29L12 29L12 30L9 30L9 29L7 29L7 30L6 30L6 31L8 31L8 30L9 30L9 31L12 31L12 30L13 30L13 29L14 29L14 31L13 31L13 33L12 33L12 34L13 34L13 33L14 33L14 34L15 34L15 35L16 35L16 34L15 34L15 33L14 33L14 32L17 32L17 34L18 34L18 35L19 35L19 33L21 33L21 35L23 35L23 36L22 36L22 37L21 37L21 36L20 36L20 37L21 37L21 38L20 38L20 39L19 39L19 36L18 36L18 38L17 38L17 37L16 37L16 36L15 36L15 38L17 38L17 40L16 40L16 39L15 39L15 40L14 40L14 38L12 38L12 37L14 37L14 35L13 35L13 36L12 36L12 35L11 35L11 37L10 37L10 38L12 38L12 39L11 39L11 40L12 40L12 39L13 39L13 40L14 40L14 41L13 41L13 42L14 42L14 43L15 43L15 42L14 42L14 41L15 41L15 40L16 40L16 41L17 41L17 42L18 42L18 41L20 41L20 39L22 39L22 38L24 38L24 37L25 37L25 36L26 36L26 37L27 37L27 38L28 38L28 37L29 37L29 38L30 38L30 37L31 37L31 35L30 35L30 36L28 36L28 34L29 34L29 33L30 33L30 32L33 32L33 30L34 30L34 29L35 29L35 30L36 30L36 29L38 29L38 28L39 28L39 26L38 26L38 25L37 25L37 26L38 26L38 27L35 27L35 28L33 28L33 27L32 27L32 28L31 28L31 30L30 30L30 26L29 26L29 29L28 29L28 28L27 28L27 26L28 26L28 25L31 25L31 24L32 24L32 25L33 25L33 26L36 26L36 25L33 25L33 22L32 22L32 21L31 21L31 20L33 20L33 21L34 21L34 17L35 17L35 16L34 16L34 15L35 15L35 13L34 13L34 15L33 15L33 16L32 16L32 17L31 17L31 18L32 18L32 17L33 17L33 19L30 19L30 16L29 16L29 15L32 15L32 14L33 14L33 12L34 12L34 11L35 11L35 10L34 10L34 9L33 9L33 10L32 10L32 8ZM6 10L6 11L8 11L8 10ZM24 10L24 12L23 12L23 13L21 13L21 14L22 14L22 15L27 15L27 14L26 14L26 12L25 12L25 10ZM47 10L47 11L49 11L49 10ZM31 11L31 13L29 13L29 14L31 14L31 13L32 13L32 12L33 12L33 11ZM0 12L0 13L1 13L1 14L2 14L2 13L1 13L1 12ZM3 13L3 14L4 14L4 13ZM40 13L40 14L41 14L41 15L42 15L42 14L41 14L41 13ZM43 14L43 15L44 15L44 17L45 17L45 15L44 15L44 14ZM33 16L33 17L34 17L34 16ZM40 16L40 17L41 17L41 18L42 18L42 17L43 17L43 16L42 16L42 17L41 17L41 16ZM46 16L46 17L47 17L47 16ZM38 17L38 18L37 18L37 19L39 19L39 17ZM6 18L6 19L8 19L8 18ZM17 18L17 19L16 19L16 22L15 22L15 21L14 21L14 22L15 22L15 26L16 26L16 25L17 25L17 24L18 24L18 22L17 22L17 19L19 19L19 18ZM21 18L21 19L20 19L20 20L19 20L19 22L21 22L21 24L19 24L19 25L18 25L18 26L19 26L19 27L18 27L18 28L17 28L17 29L16 29L16 31L17 31L17 32L20 32L20 31L21 31L21 32L22 32L22 34L24 34L24 35L26 35L26 36L27 36L27 37L28 37L28 36L27 36L27 35L26 35L26 34L28 34L28 32L30 32L30 31L29 31L29 30L27 30L27 28L26 28L26 30L25 30L25 29L24 29L24 27L22 27L22 28L21 28L21 27L20 27L20 26L22 26L22 22L27 22L27 23L30 23L30 24L31 24L31 23L30 23L30 22L31 22L31 21L28 21L28 22L27 22L27 21L26 21L26 20L27 20L27 19L28 19L28 20L30 20L30 19L28 19L28 18L26 18L26 19L25 19L25 21L24 21L24 20L23 20L23 21L22 21L22 18ZM23 18L23 19L24 19L24 18ZM9 19L9 20L8 20L8 21L9 21L9 20L10 20L10 19ZM20 20L20 21L21 21L21 22L22 22L22 21L21 21L21 20ZM2 22L2 24L1 24L1 25L2 25L2 24L4 24L4 23L3 23L3 22ZM5 23L5 26L8 26L8 23ZM23 23L23 26L26 26L26 23ZM41 23L41 26L44 26L44 23ZM6 24L6 25L7 25L7 24ZM24 24L24 25L25 25L25 24ZM27 24L27 25L28 25L28 24ZM42 24L42 25L43 25L43 24ZM19 25L19 26L20 26L20 25ZM0 27L0 30L1 30L1 27ZM19 27L19 28L18 28L18 29L17 29L17 31L18 31L18 30L19 30L19 28L20 28L20 30L21 30L21 31L22 31L22 30L24 30L24 29L23 29L23 28L22 28L22 29L21 29L21 28L20 28L20 27ZM41 28L41 29L42 29L42 28ZM32 29L32 30L33 30L33 29ZM26 30L26 32L27 32L27 30ZM23 31L23 33L24 33L24 32L25 32L25 31ZM35 31L35 32L36 32L36 33L38 33L38 32L37 32L37 31ZM6 32L6 33L7 33L7 32ZM8 32L8 33L10 33L10 32ZM40 33L40 34L41 34L41 35L40 35L40 36L42 36L42 37L41 37L41 38L42 38L42 37L43 37L43 34L41 34L41 33ZM23 36L23 37L24 37L24 36ZM45 36L45 37L46 37L46 36ZM9 39L9 40L10 40L10 39ZM18 39L18 40L19 40L19 39ZM23 41L23 44L26 44L26 41ZM41 41L41 44L44 44L44 41ZM24 42L24 43L25 43L25 42ZM28 42L28 43L27 43L27 45L28 45L28 44L29 44L29 42ZM42 42L42 43L43 43L43 42ZM19 45L19 47L20 47L20 46L21 46L21 45ZM25 45L25 46L26 46L26 47L27 47L27 46L26 46L26 45ZM37 46L37 47L38 47L38 46ZM30 47L30 48L31 48L31 47ZM32 47L32 48L33 48L33 47ZM47 48L47 49L49 49L49 48ZM0 0L0 7L7 7L7 0ZM1 1L1 6L6 6L6 1ZM2 2L2 5L5 5L5 2ZM42 0L42 7L49 7L49 0ZM43 1L43 6L48 6L48 1ZM44 2L44 5L47 5L47 2ZM0 42L0 49L7 49L7 42ZM1 43L1 48L6 48L6 43ZM2 44L2 47L5 47L5 44Z" fill="#000000"/></g></g></svg>
