<?xml version="1.0" encoding="UTF-8"?>
<svg xmlns="http://www.w3.org/2000/svg" version="1.1" width="300" height="300" viewBox="0 0 300 300"><rect x="0" y="0" width="300" height="300" fill="#ffffff"/><g transform="scale(5.455)"><g transform="translate(1,1)"><path fill-rule="evenodd" d="M8 0L8 1L9 1L9 0ZM10 0L10 1L11 1L11 0ZM12 0L12 4L11 4L11 3L9 3L9 2L8 2L8 5L10 5L10 7L9 7L9 6L8 6L8 7L9 7L9 8L8 8L8 9L10 9L10 10L12 10L12 11L13 11L13 5L14 5L14 7L15 7L15 5L14 5L14 4L13 4L13 2L14 2L14 0ZM15 0L15 2L16 2L16 3L15 3L15 4L17 4L17 5L16 5L16 11L15 11L15 10L14 10L14 11L15 11L15 12L16 12L16 13L18 13L18 15L17 15L17 14L16 14L16 15L15 15L15 16L14 16L14 13L12 13L12 12L10 12L10 15L9 15L9 14L6 14L6 15L5 15L5 14L4 14L4 15L3 15L3 17L2 17L2 14L3 14L3 13L2 13L2 12L4 12L4 13L5 13L5 12L4 12L4 11L3 11L3 10L4 10L4 8L0 8L0 10L1 10L1 12L0 12L0 15L1 15L1 17L2 17L2 18L1 18L1 20L0 20L0 21L1 21L1 22L0 22L0 23L1 23L1 24L0 24L0 25L1 25L1 26L2 26L2 27L1 27L1 28L0 28L0 29L3 29L3 27L4 27L4 30L5 30L5 31L3 31L3 30L2 30L2 32L3 32L3 33L4 33L4 32L5 32L5 31L7 31L7 30L8 30L8 32L6 32L6 33L5 33L5 34L6 34L6 35L4 35L4 37L5 37L5 38L3 38L3 35L2 35L2 33L0 33L0 35L2 35L2 36L0 36L0 39L1 39L1 40L0 40L0 43L1 43L1 44L3 44L3 45L4 45L4 44L3 44L3 43L8 43L8 42L9 42L9 41L8 41L8 39L7 39L7 38L6 38L6 37L8 37L8 38L10 38L10 37L12 37L12 38L11 38L11 39L10 39L10 40L11 40L11 43L12 43L12 45L11 45L11 44L10 44L10 47L11 47L11 46L12 46L12 47L13 47L13 48L14 48L14 49L12 49L12 48L10 48L10 49L8 49L8 53L11 53L11 52L12 52L12 50L16 50L16 51L17 51L17 50L16 50L16 49L15 49L15 46L16 46L16 44L18 44L18 43L19 43L19 42L18 42L18 41L17 41L17 40L19 40L19 39L20 39L20 38L21 38L21 39L23 39L23 37L24 37L24 36L25 36L25 39L24 39L24 40L23 40L23 42L24 42L24 43L26 43L26 44L24 44L24 49L22 49L22 48L23 48L23 47L22 47L22 46L23 46L23 44L22 44L22 45L21 45L21 43L22 43L22 40L20 40L20 41L21 41L21 43L20 43L20 44L19 44L19 45L21 45L21 47L20 47L20 50L19 50L19 51L20 51L20 52L19 52L19 53L20 53L20 52L21 52L21 51L22 51L22 50L24 50L24 51L23 51L23 52L25 52L25 49L26 49L26 52L27 52L27 53L28 53L28 52L29 52L29 51L31 51L31 52L30 52L30 53L31 53L31 52L32 52L32 53L33 53L33 52L34 52L34 53L35 53L35 52L36 52L36 51L35 51L35 52L34 52L34 51L33 51L33 50L34 50L34 49L35 49L35 50L36 50L36 49L37 49L37 47L38 47L38 45L40 45L40 46L41 46L41 47L42 47L42 48L41 48L41 49L42 49L42 48L43 48L43 47L44 47L44 49L43 49L43 50L42 50L42 51L43 51L43 52L41 52L41 53L43 53L43 52L44 52L44 51L43 51L43 50L44 50L44 49L45 49L45 50L49 50L49 51L47 51L47 52L46 52L46 53L47 53L47 52L48 52L48 53L50 53L50 52L49 52L49 51L50 51L50 50L51 50L51 53L52 53L52 49L51 49L51 48L53 48L53 47L52 47L52 46L53 46L53 45L52 45L52 43L50 43L50 45L52 45L52 46L50 46L50 47L49 47L49 44L47 44L47 43L49 43L49 42L50 42L50 41L49 41L49 39L50 39L50 38L51 38L51 40L52 40L52 39L53 39L53 36L52 36L52 38L51 38L51 36L50 36L50 35L49 35L49 32L50 32L50 34L51 34L51 35L52 35L52 34L53 34L53 32L52 32L52 31L50 31L50 30L52 30L52 28L51 28L51 29L50 29L50 28L49 28L49 26L51 26L51 27L53 27L53 25L52 25L52 24L50 24L50 25L49 25L49 23L48 23L48 22L49 22L49 21L51 21L51 20L52 20L52 22L51 22L51 23L52 23L52 22L53 22L53 19L51 19L51 18L50 18L50 14L51 14L51 17L52 17L52 15L53 15L53 13L52 13L52 12L53 12L53 11L52 11L52 10L50 10L50 9L51 9L51 8L48 8L48 9L47 9L47 10L45 10L45 11L48 11L48 10L49 10L49 11L51 11L51 12L48 12L48 13L47 13L47 12L44 12L44 9L46 9L46 8L45 8L45 6L44 6L44 9L43 9L43 8L42 8L42 7L43 7L43 3L44 3L44 4L45 4L45 3L44 3L44 1L43 1L43 0L42 0L42 1L41 1L41 0L40 0L40 2L43 2L43 3L42 3L42 5L41 5L41 4L40 4L40 3L39 3L39 4L37 4L37 3L38 3L38 2L39 2L39 1L38 1L38 0L35 0L35 1L34 1L34 0L32 0L32 1L33 1L33 2L32 2L32 3L31 3L31 5L30 5L30 4L29 4L29 3L27 3L27 4L26 4L26 3L25 3L25 0L23 0L23 1L22 1L22 2L24 2L24 3L23 3L23 4L22 4L22 3L21 3L21 1L20 1L20 0L17 0L17 1L19 1L19 2L20 2L20 3L21 3L21 4L19 4L19 3L17 3L17 2L16 2L16 0ZM26 0L26 1L29 1L29 2L31 2L31 0L30 0L30 1L29 1L29 0ZM35 1L35 2L36 2L36 1ZM37 1L37 2L38 2L38 1ZM33 2L33 3L32 3L32 4L34 4L34 6L33 6L33 5L32 5L32 6L31 6L31 7L30 7L30 5L29 5L29 7L30 7L30 8L29 8L29 9L28 9L28 10L27 10L27 9L25 9L25 10L24 10L24 11L23 11L23 10L21 10L21 9L19 9L19 8L23 8L23 9L24 9L24 5L23 5L23 7L22 7L22 6L21 6L21 7L20 7L20 6L19 6L19 5L18 5L18 6L17 6L17 7L18 7L18 9L17 9L17 10L18 10L18 12L19 12L19 15L18 15L18 16L17 16L17 15L16 15L16 17L14 17L14 16L13 16L13 15L12 15L12 14L11 14L11 15L12 15L12 16L13 16L13 17L12 17L12 19L13 19L13 20L12 20L12 22L10 22L10 21L11 21L11 18L10 18L10 17L11 17L11 16L9 16L9 15L8 15L8 16L7 16L7 15L6 15L6 16L5 16L5 15L4 15L4 17L3 17L3 18L7 18L7 17L8 17L8 22L7 22L7 21L5 21L5 24L7 24L7 23L8 23L8 22L9 22L9 23L12 23L12 24L9 24L9 25L11 25L11 26L9 26L9 28L10 28L10 30L11 30L11 34L10 34L10 31L9 31L9 33L8 33L8 34L7 34L7 33L6 33L6 34L7 34L7 35L6 35L6 36L7 36L7 35L8 35L8 36L9 36L9 37L10 37L10 36L11 36L11 35L12 35L12 37L13 37L13 40L12 40L12 41L13 41L13 40L14 40L14 42L16 42L16 41L15 41L15 40L14 40L14 38L15 38L15 39L16 39L16 40L17 40L17 39L18 39L18 38L17 38L17 37L18 37L18 35L17 35L17 33L16 33L16 32L18 32L18 33L19 33L19 32L20 32L20 34L21 34L21 36L20 36L20 35L19 35L19 36L20 36L20 37L21 37L21 38L22 38L22 37L23 37L23 34L21 34L21 32L20 32L20 31L19 31L19 30L21 30L21 29L20 29L20 28L18 28L18 29L19 29L19 30L18 30L18 31L16 31L16 32L14 32L14 34L15 34L15 33L16 33L16 35L14 35L14 37L13 37L13 35L12 35L12 34L13 34L13 33L12 33L12 32L13 32L13 31L15 31L15 30L16 30L16 27L17 27L17 26L15 26L15 29L14 29L14 30L13 30L13 31L12 31L12 30L11 30L11 28L12 28L12 29L13 29L13 28L14 28L14 27L13 27L13 26L14 26L14 25L13 25L13 26L12 26L12 24L13 24L13 22L14 22L14 23L15 23L15 20L16 20L16 25L18 25L18 24L19 24L19 25L21 25L21 26L22 26L22 27L21 27L21 28L22 28L22 29L24 29L24 30L23 30L23 31L24 31L24 32L23 32L23 33L24 33L24 34L25 34L25 36L26 36L26 38L27 38L27 39L26 39L26 40L24 40L24 41L26 41L26 43L27 43L27 42L28 42L28 41L26 41L26 40L32 40L32 39L34 39L34 40L33 40L33 41L35 41L35 43L34 43L34 42L32 42L32 43L30 43L30 45L31 45L31 47L30 47L30 48L29 48L29 50L31 50L31 51L32 51L32 50L33 50L33 48L34 48L34 47L33 47L33 46L35 46L35 47L37 47L37 46L36 46L36 45L38 45L38 44L40 44L40 42L41 42L41 43L42 43L42 44L41 44L41 46L42 46L42 47L43 47L43 46L42 46L42 45L43 45L43 43L45 43L45 44L46 44L46 43L47 43L47 42L49 42L49 41L48 41L48 39L49 39L49 38L50 38L50 36L49 36L49 37L48 37L48 35L47 35L47 34L48 34L48 33L47 33L47 34L46 34L46 36L47 36L47 37L46 37L46 38L47 38L47 40L45 40L45 42L44 42L44 40L43 40L43 39L42 39L42 40L40 40L40 41L39 41L39 39L36 39L36 38L37 38L37 37L34 37L34 36L33 36L33 34L34 34L34 35L35 35L35 36L36 36L36 35L37 35L37 36L38 36L38 37L39 37L39 38L40 38L40 39L41 39L41 37L42 37L42 38L44 38L44 39L45 39L45 38L44 38L44 37L45 37L45 36L43 36L43 35L45 35L45 33L46 33L46 31L48 31L48 32L49 32L49 29L48 29L48 30L46 30L46 29L44 29L44 26L43 26L43 25L44 25L44 22L48 22L48 21L49 21L49 20L48 20L48 19L50 19L50 18L48 18L48 19L45 19L45 17L46 17L46 16L47 16L47 17L49 17L49 13L48 13L48 14L47 14L47 13L46 13L46 14L45 14L45 15L46 15L46 16L44 16L44 15L40 15L40 14L39 14L39 15L40 15L40 17L38 17L38 18L40 18L40 19L42 19L42 20L43 20L43 23L42 23L42 21L41 21L41 22L40 22L40 21L38 21L38 20L39 20L39 19L37 19L37 16L34 16L34 17L36 17L36 19L35 19L35 18L34 18L34 20L36 20L36 21L33 21L33 17L30 17L30 16L31 16L31 14L33 14L33 15L37 15L37 13L36 13L36 14L35 14L35 13L34 13L34 11L35 11L35 12L36 12L36 11L37 11L37 12L38 12L38 13L39 13L39 11L40 11L40 13L41 13L41 12L43 12L43 13L42 13L42 14L44 14L44 12L43 12L43 10L42 10L42 9L41 9L41 10L39 10L39 9L38 9L38 8L37 8L37 7L38 7L38 6L39 6L39 8L41 8L41 7L42 7L42 6L41 6L41 5L40 5L40 4L39 4L39 5L38 5L38 6L37 6L37 4L34 4L34 2ZM24 3L24 4L25 4L25 3ZM10 4L10 5L11 5L11 4ZM12 4L12 5L13 5L13 4ZM21 4L21 5L22 5L22 4ZM25 5L25 8L28 8L28 5ZM11 6L11 9L12 9L12 6ZM18 6L18 7L19 7L19 6ZM26 6L26 7L27 7L27 6ZM32 6L32 7L31 7L31 9L29 9L29 11L30 11L30 10L31 10L31 9L32 9L32 11L31 11L31 12L30 12L30 13L32 13L32 12L33 12L33 11L34 11L34 10L33 10L33 9L36 9L36 7L37 7L37 6L36 6L36 7L35 7L35 6L34 6L34 7L35 7L35 8L33 8L33 9L32 9L32 7L33 7L33 6ZM40 6L40 7L41 7L41 6ZM6 8L6 9L7 9L7 8ZM14 8L14 9L15 9L15 8ZM52 8L52 9L53 9L53 8ZM2 9L2 10L3 10L3 9ZM18 9L18 10L19 10L19 12L21 12L21 11L20 11L20 10L19 10L19 9ZM5 10L5 11L7 11L7 12L6 12L6 13L7 13L7 12L8 12L8 13L9 13L9 12L8 12L8 10ZM26 10L26 11L27 11L27 12L28 12L28 13L26 13L26 15L25 15L25 14L24 14L24 13L25 13L25 12L23 12L23 11L22 11L22 12L23 12L23 14L24 14L24 15L23 15L23 18L24 18L24 19L25 19L25 21L24 21L24 20L23 20L23 19L21 19L21 18L18 18L18 17L16 17L16 18L17 18L17 21L18 21L18 19L20 19L20 20L21 20L21 22L22 22L22 21L24 21L24 23L23 23L23 25L22 25L22 26L23 26L23 27L24 27L24 29L25 29L25 30L27 30L27 31L25 31L25 32L24 32L24 33L25 33L25 32L27 32L27 33L28 33L28 34L26 34L26 35L27 35L27 36L29 36L29 37L28 37L28 38L29 38L29 37L30 37L30 36L29 36L29 35L30 35L30 34L32 34L32 33L30 33L30 32L31 32L31 31L29 31L29 30L30 30L30 29L29 29L29 25L32 25L32 26L33 26L33 25L32 25L32 24L34 24L34 23L36 23L36 26L37 26L37 24L38 24L38 27L39 27L39 25L40 25L40 26L41 26L41 25L40 25L40 24L38 24L38 21L37 21L37 22L34 22L34 23L32 23L32 22L33 22L33 21L32 21L32 22L31 22L31 20L29 20L29 19L28 19L28 20L27 20L27 17L25 17L25 18L24 18L24 16L26 16L26 15L27 15L27 16L28 16L28 17L29 17L29 18L30 18L30 19L32 19L32 18L30 18L30 17L29 17L29 15L30 15L30 14L29 14L29 12L28 12L28 11L27 11L27 10ZM41 10L41 11L42 11L42 10ZM16 11L16 12L17 12L17 11ZM1 13L1 14L2 14L2 13ZM20 13L20 14L21 14L21 13ZM33 13L33 14L34 14L34 13ZM27 14L27 15L28 15L28 14ZM46 14L46 15L47 15L47 14ZM20 15L20 17L22 17L22 16L21 16L21 15ZM6 16L6 17L7 17L7 16ZM41 16L41 17L40 17L40 18L42 18L42 19L44 19L44 21L47 21L47 20L45 20L45 19L44 19L44 18L42 18L42 17L44 17L44 16ZM9 18L9 20L10 20L10 18ZM13 18L13 19L14 19L14 18ZM4 19L4 20L3 20L3 21L4 21L4 20L7 20L7 19ZM13 20L13 21L14 21L14 20ZM26 20L26 22L27 22L27 23L24 23L24 24L28 24L28 23L29 23L29 24L31 24L31 23L29 23L29 20L28 20L28 22L27 22L27 20ZM19 21L19 22L20 22L20 21ZM3 22L3 25L2 25L2 24L1 24L1 25L2 25L2 26L3 26L3 25L4 25L4 22ZM6 22L6 23L7 23L7 22ZM19 23L19 24L20 24L20 23ZM21 23L21 24L22 24L22 23ZM47 23L47 24L48 24L48 23ZM5 25L5 28L8 28L8 25ZM25 25L25 28L28 28L28 25ZM45 25L45 28L48 28L48 25ZM6 26L6 27L7 27L7 26ZM18 26L18 27L20 27L20 26ZM26 26L26 27L27 27L27 26ZM34 26L34 29L33 29L33 27L32 27L32 28L31 28L31 29L33 29L33 31L34 31L34 32L35 32L35 31L36 31L36 32L37 32L37 33L35 33L35 35L36 35L36 34L37 34L37 35L38 35L38 34L37 34L37 33L38 33L38 32L40 32L40 34L39 34L39 35L40 35L40 34L41 34L41 35L43 35L43 33L45 33L45 32L44 32L44 31L42 31L42 30L41 30L41 29L43 29L43 30L44 30L44 29L43 29L43 28L41 28L41 27L40 27L40 28L39 28L39 30L38 30L38 32L37 32L37 29L38 29L38 28L37 28L37 27L36 27L36 28L35 28L35 26ZM42 26L42 27L43 27L43 26ZM46 26L46 27L47 27L47 26ZM36 28L36 29L35 29L35 30L36 30L36 29L37 29L37 28ZM40 28L40 29L41 29L41 28ZM5 29L5 30L7 30L7 29ZM8 29L8 30L9 30L9 29ZM27 29L27 30L28 30L28 29ZM0 30L0 32L1 32L1 30ZM40 30L40 31L41 31L41 32L42 32L42 31L41 31L41 30ZM28 31L28 33L29 33L29 34L30 34L30 33L29 33L29 31ZM51 32L51 34L52 34L52 32ZM9 34L9 36L10 36L10 34ZM16 35L16 37L17 37L17 35ZM31 35L31 37L32 37L32 38L30 38L30 39L32 39L32 38L34 38L34 37L32 37L32 35ZM21 36L21 37L22 37L22 36ZM42 36L42 37L43 37L43 36ZM1 37L1 39L2 39L2 40L1 40L1 42L2 42L2 43L3 43L3 42L2 42L2 40L3 40L3 39L2 39L2 37ZM5 38L5 39L4 39L4 42L5 42L5 40L7 40L7 39L6 39L6 38ZM35 39L35 41L36 41L36 39ZM42 40L42 41L41 41L41 42L42 42L42 41L43 41L43 40ZM6 41L6 42L7 42L7 41ZM30 41L30 42L31 42L31 41ZM37 41L37 43L35 43L35 44L34 44L34 43L33 43L33 45L32 45L32 44L31 44L31 45L32 45L32 46L33 46L33 45L36 45L36 44L37 44L37 43L39 43L39 42L38 42L38 41ZM52 41L52 42L53 42L53 41ZM12 42L12 43L13 43L13 42ZM17 42L17 43L18 43L18 42ZM14 43L14 44L16 44L16 43ZM28 43L28 44L29 44L29 43ZM6 44L6 45L7 45L7 44ZM8 45L8 46L9 46L9 45ZM12 45L12 46L13 46L13 47L14 47L14 46L15 46L15 45ZM17 45L17 47L16 47L16 48L17 48L17 49L19 49L19 47L18 47L18 45ZM25 45L25 48L28 48L28 45ZM45 45L45 48L48 48L48 45ZM26 46L26 47L27 47L27 46ZM46 46L46 47L47 47L47 46ZM21 47L21 48L22 48L22 47ZM32 47L32 48L30 48L30 49L31 49L31 50L32 50L32 48L33 48L33 47ZM50 47L50 48L49 48L49 50L50 50L50 48L51 48L51 47ZM35 48L35 49L36 49L36 48ZM38 48L38 51L37 51L37 53L40 53L40 51L39 51L39 50L40 50L40 49L39 49L39 48ZM10 49L10 50L9 50L9 51L10 51L10 50L12 50L12 49ZM27 49L27 52L28 52L28 49ZM13 51L13 52L14 52L14 51ZM38 51L38 52L39 52L39 51ZM15 52L15 53L18 53L18 52ZM0 0L0 7L7 7L7 0ZM1 1L1 6L6 6L6 1ZM2 2L2 5L5 5L5 2ZM46 0L46 7L53 7L53 0ZM47 1L47 6L52 6L52 1ZM48 2L48 5L51 5L51 2ZM0 46L0 53L7 53L7 46ZM1 47L1 52L6 52L6 47ZM2 48L2 51L5 51L5 48Z" fill="#000000"/></g></g></svg>
