<?xml version="1.0" encoding="UTF-8"?>
<svg xmlns="http://www.w3.org/2000/svg" version="1.1" width="300" height="300" viewBox="0 0 300 300"><rect x="0" y="0" width="300" height="300" fill="#ffffff"/><g transform="scale(5.455)"><g transform="translate(1,1)"><path fill-rule="evenodd" d="M8 0L8 1L9 1L9 2L8 2L8 5L9 5L9 6L8 6L8 7L9 7L9 6L10 6L10 7L11 7L11 12L12 12L12 13L11 13L11 14L10 14L10 12L6 12L6 13L5 13L5 14L3 14L3 13L4 13L4 12L5 12L5 11L7 11L7 10L9 10L9 8L8 8L8 9L7 9L7 8L6 8L6 9L4 9L4 8L0 8L0 9L3 9L3 10L0 10L0 14L2 14L2 16L1 16L1 15L0 15L0 18L2 18L2 20L4 20L4 22L5 22L5 23L7 23L7 24L4 24L4 23L3 23L3 21L1 21L1 22L0 22L0 23L1 23L1 26L0 26L0 29L1 29L1 27L3 27L3 30L4 30L4 31L7 31L7 32L6 32L6 33L8 33L8 34L5 34L5 32L4 32L4 33L3 33L3 32L2 32L2 30L0 30L0 32L1 32L1 33L0 33L0 38L1 38L1 39L0 39L0 41L1 41L1 42L0 42L0 43L1 43L1 44L3 44L3 45L4 45L4 44L3 44L3 43L8 43L8 46L9 46L9 43L8 43L8 41L7 41L7 40L5 40L5 39L4 39L4 38L5 38L5 36L4 36L4 35L3 35L3 34L5 34L5 35L7 35L7 36L6 36L6 37L7 37L7 36L8 36L8 37L9 37L9 38L10 38L10 37L9 37L9 36L11 36L11 39L10 39L10 42L11 42L11 41L12 41L12 40L14 40L14 41L13 41L13 42L14 42L14 43L11 43L11 44L10 44L10 47L9 47L9 49L8 49L8 53L9 53L9 49L10 49L10 47L11 47L11 48L13 48L13 49L11 49L11 50L12 50L12 53L14 53L14 52L13 52L13 50L14 50L14 48L13 48L13 47L15 47L15 52L16 52L16 47L15 47L15 45L13 45L13 47L11 47L11 45L12 45L12 44L14 44L14 43L15 43L15 42L14 42L14 41L15 41L15 40L14 40L14 37L13 37L13 36L16 36L16 34L15 34L15 33L18 33L18 35L17 35L17 36L18 36L18 38L17 38L17 39L16 39L16 37L15 37L15 39L16 39L16 45L17 45L17 44L19 44L19 46L18 46L18 47L17 47L17 50L18 50L18 49L19 49L19 50L23 50L23 49L22 49L22 48L24 48L24 50L26 50L26 53L28 53L28 52L29 52L29 53L33 53L33 52L34 52L34 53L35 53L35 51L33 51L33 50L34 50L34 49L35 49L35 50L36 50L36 49L37 49L37 47L36 47L36 46L38 46L38 45L39 45L39 47L40 47L40 46L41 46L41 47L42 47L42 48L41 48L41 49L42 49L42 48L43 48L43 47L44 47L44 49L45 49L45 50L49 50L49 51L47 51L47 52L46 52L46 53L47 53L47 52L48 52L48 53L49 53L49 52L50 52L50 50L51 50L51 53L52 53L52 50L53 50L53 49L52 49L52 48L53 48L53 47L52 47L52 48L50 48L50 47L51 47L51 46L50 46L50 47L49 47L49 45L50 45L50 44L51 44L51 45L52 45L52 46L53 46L53 43L52 43L52 44L51 44L51 41L49 41L49 39L50 39L50 38L52 38L52 39L51 39L51 40L53 40L53 36L52 36L52 37L50 37L50 38L49 38L49 39L48 39L48 41L46 41L46 40L47 40L47 38L46 38L46 37L47 37L47 36L45 36L45 35L46 35L46 34L47 34L47 35L48 35L48 34L49 34L49 36L48 36L48 37L49 37L49 36L50 36L50 35L52 35L52 34L53 34L53 31L52 31L52 30L51 30L51 29L52 29L52 28L51 28L51 29L50 29L50 28L49 28L49 23L48 23L48 22L49 22L49 21L48 21L48 20L49 20L49 19L50 19L50 21L51 21L51 20L52 20L52 22L53 22L53 19L50 19L50 18L51 18L51 17L50 17L50 14L52 14L52 15L51 15L51 16L52 16L52 15L53 15L53 13L52 13L52 12L53 12L53 11L52 11L52 10L51 10L51 8L48 8L48 9L47 9L47 10L45 10L45 12L44 12L44 9L46 9L46 8L45 8L45 6L44 6L44 9L43 9L43 8L42 8L42 7L43 7L43 3L44 3L44 4L45 4L45 3L44 3L44 1L43 1L43 0L42 0L42 1L41 1L41 0L40 0L40 2L39 2L39 1L38 1L38 0L37 0L37 1L36 1L36 3L34 3L34 4L33 4L33 5L32 5L32 7L31 7L31 5L30 5L30 7L29 7L29 4L30 4L30 2L31 2L31 4L32 4L32 3L33 3L33 2L34 2L34 1L33 1L33 0L32 0L32 1L33 1L33 2L31 2L31 0L30 0L30 1L29 1L29 3L26 3L26 4L25 4L25 3L23 3L23 4L22 4L22 1L24 1L24 2L26 2L26 0L21 0L21 2L20 2L20 0L19 0L19 3L16 3L16 1L14 1L14 0L12 0L12 1L13 1L13 3L11 3L11 1L9 1L9 0ZM27 0L27 2L28 2L28 0ZM17 1L17 2L18 2L18 1ZM37 1L37 2L38 2L38 3L37 3L37 4L34 4L34 5L33 5L33 7L32 7L32 9L31 9L31 7L30 7L30 8L29 8L29 9L26 9L26 10L25 10L25 9L24 9L24 4L23 4L23 7L22 7L22 6L21 6L21 7L20 7L20 6L19 6L19 5L20 5L20 3L19 3L19 4L18 4L18 6L17 6L17 7L16 7L16 6L15 6L15 4L16 4L16 5L17 5L17 4L16 4L16 3L15 3L15 2L14 2L14 4L12 4L12 5L10 5L10 3L9 3L9 5L10 5L10 6L11 6L11 7L12 7L12 8L13 8L13 10L12 10L12 12L13 12L13 13L12 13L12 14L13 14L13 13L14 13L14 14L15 14L15 16L16 16L16 17L17 17L17 16L18 16L18 17L19 17L19 18L20 18L20 19L19 19L19 20L18 20L18 19L17 19L17 20L18 20L18 21L16 21L16 18L15 18L15 17L12 17L12 18L11 18L11 17L8 17L8 16L9 16L9 15L10 15L10 16L14 16L14 15L10 15L10 14L8 14L8 13L6 13L6 14L5 14L5 19L4 19L4 17L3 17L3 19L4 19L4 20L7 20L7 21L6 21L6 22L7 22L7 23L8 23L8 24L10 24L10 25L9 25L9 26L10 26L10 27L11 27L11 28L13 28L13 31L12 31L12 30L11 30L11 29L9 29L9 30L7 30L7 29L6 29L6 30L7 30L7 31L8 31L8 33L9 33L9 34L8 34L8 36L9 36L9 35L11 35L11 36L12 36L12 35L11 35L11 32L10 32L10 31L12 31L12 33L13 33L13 31L14 31L14 33L15 33L15 32L17 32L17 31L18 31L18 33L20 33L20 34L19 34L19 35L18 35L18 36L19 36L19 35L21 35L21 33L22 33L22 31L21 31L21 29L22 29L22 30L23 30L23 32L24 32L24 30L23 30L23 27L24 27L24 24L27 24L27 22L28 22L28 23L29 23L29 24L30 24L30 20L31 20L31 21L33 21L33 24L32 24L32 25L29 25L29 28L31 28L31 27L33 27L33 28L34 28L34 26L35 26L35 27L36 27L36 29L38 29L38 30L37 30L37 32L36 32L36 30L35 30L35 32L34 32L34 31L33 31L33 30L32 30L32 29L27 29L27 31L28 31L28 32L29 32L29 33L28 33L28 34L27 34L27 35L26 35L26 33L27 33L27 32L25 32L25 34L24 34L24 36L26 36L26 37L25 37L25 39L24 39L24 37L23 37L23 34L22 34L22 37L23 37L23 39L22 39L22 38L21 38L21 39L22 39L22 40L21 40L21 41L20 41L20 40L17 40L17 42L18 42L18 43L19 43L19 44L20 44L20 43L21 43L21 45L20 45L20 46L19 46L19 47L20 47L20 48L19 48L19 49L21 49L21 47L24 47L24 44L23 44L23 45L22 45L22 43L24 43L24 42L25 42L25 43L26 43L26 44L27 44L27 43L26 43L26 42L25 42L25 39L27 39L27 42L28 42L28 44L29 44L29 41L30 41L30 45L31 45L31 47L29 47L29 48L30 48L30 50L29 50L29 49L27 49L27 51L28 51L28 50L29 50L29 51L30 51L30 52L31 52L31 51L32 51L32 52L33 52L33 51L32 51L32 50L33 50L33 48L34 48L34 47L35 47L35 45L34 45L34 46L33 46L33 44L34 44L34 42L32 42L32 43L31 43L31 41L30 41L30 40L29 40L29 39L31 39L31 40L32 40L32 39L34 39L34 40L33 40L33 41L35 41L35 39L36 39L36 41L38 41L38 42L39 42L39 44L40 44L40 42L41 42L41 43L42 43L42 44L41 44L41 45L42 45L42 44L43 44L43 43L45 43L45 41L44 41L44 40L45 40L45 39L44 39L44 40L43 40L43 39L42 39L42 40L40 40L40 41L39 41L39 39L40 39L40 38L44 38L44 37L45 37L45 36L43 36L43 35L45 35L45 33L46 33L46 31L48 31L48 32L47 32L47 33L48 33L48 32L49 32L49 33L50 33L50 34L52 34L52 33L50 33L50 32L49 32L49 29L48 29L48 30L46 30L46 29L44 29L44 26L43 26L43 25L44 25L44 24L45 24L45 22L47 22L47 21L44 21L44 19L45 19L45 17L46 17L46 16L47 16L47 17L49 17L49 18L48 18L48 19L46 19L46 20L48 20L48 19L49 19L49 18L50 18L50 17L49 17L49 14L47 14L47 12L46 12L46 16L44 16L44 15L43 15L43 14L44 14L44 13L42 13L42 12L43 12L43 10L42 10L42 9L41 9L41 10L39 10L39 9L38 9L38 8L37 8L37 7L38 7L38 4L39 4L39 2L38 2L38 1ZM40 2L40 5L39 5L39 8L41 8L41 7L42 7L42 6L41 6L41 7L40 7L40 5L42 5L42 3L43 3L43 2ZM21 4L21 5L22 5L22 4ZM13 5L13 6L12 6L12 7L13 7L13 8L14 8L14 7L15 7L15 6L14 6L14 5ZM25 5L25 8L28 8L28 5ZM35 5L35 6L34 6L34 7L35 7L35 9L36 9L36 7L37 7L37 6L36 6L36 5ZM13 6L13 7L14 7L14 6ZM18 6L18 7L19 7L19 6ZM26 6L26 7L27 7L27 6ZM35 6L35 7L36 7L36 6ZM21 7L21 8L19 8L19 11L18 11L18 8L17 8L17 11L15 11L15 10L16 10L16 9L15 9L15 10L13 10L13 11L15 11L15 14L16 14L16 15L18 15L18 16L20 16L20 15L18 15L18 13L20 13L20 14L22 14L22 15L23 15L23 17L24 17L24 16L26 16L26 15L23 15L23 14L25 14L25 13L22 13L22 12L24 12L24 11L23 11L23 8L22 8L22 7ZM33 8L33 9L32 9L32 11L31 11L31 12L30 12L30 11L28 11L28 10L27 10L27 11L28 11L28 12L26 12L26 13L28 13L28 12L29 12L29 13L31 13L31 14L28 14L28 15L27 15L27 16L30 16L30 17L29 17L29 18L30 18L30 17L33 17L33 20L37 20L37 21L38 21L38 20L39 20L39 19L40 19L40 21L39 21L39 22L40 22L40 23L42 23L42 22L43 22L43 19L44 19L44 18L42 18L42 17L44 17L44 16L41 16L41 17L40 17L40 15L41 15L41 14L42 14L42 13L41 13L41 14L40 14L40 15L39 15L39 13L40 13L40 11L37 11L37 12L34 12L34 11L33 11L33 9L34 9L34 8ZM52 8L52 9L53 9L53 8ZM6 9L6 10L7 10L7 9ZM20 9L20 12L21 12L21 9ZM29 9L29 10L31 10L31 9ZM49 9L49 10L48 10L48 11L50 11L50 12L49 12L49 13L50 13L50 12L51 12L51 11L50 11L50 9ZM41 10L41 11L42 11L42 10ZM1 11L1 13L3 13L3 12L4 12L4 11ZM32 12L32 13L34 13L34 14L31 14L31 15L34 15L34 17L36 17L36 19L37 19L37 20L38 20L38 19L37 19L37 16L36 16L36 15L38 15L38 12L37 12L37 13L36 13L36 14L35 14L35 13L34 13L34 12ZM16 13L16 14L17 14L17 13ZM6 14L6 15L7 15L7 14ZM3 15L3 16L4 16L4 15ZM6 16L6 17L7 17L7 18L6 18L6 19L7 19L7 20L8 20L8 21L7 21L7 22L8 22L8 23L10 23L10 20L9 20L9 19L11 19L11 18L8 18L8 17L7 17L7 16ZM21 16L21 20L19 20L19 21L18 21L18 22L16 22L16 23L18 23L18 25L17 25L17 26L16 26L16 24L15 24L15 25L14 25L14 24L13 24L13 25L14 25L14 26L13 26L13 27L14 27L14 26L16 26L16 27L17 27L17 29L16 29L16 30L15 30L15 28L14 28L14 31L16 31L16 30L17 30L17 29L18 29L18 31L19 31L19 32L21 32L21 31L20 31L20 30L19 30L19 29L20 29L20 26L23 26L23 25L22 25L22 24L23 24L23 23L26 23L26 22L24 22L24 21L27 21L27 19L28 19L28 22L29 22L29 20L30 20L30 19L28 19L28 18L27 18L27 17L26 17L26 18L27 18L27 19L25 19L25 18L24 18L24 19L23 19L23 20L22 20L22 16ZM38 17L38 18L40 18L40 19L42 19L42 18L40 18L40 17ZM12 18L12 20L11 20L11 23L12 23L12 22L13 22L13 21L14 21L14 22L15 22L15 21L14 21L14 20L13 20L13 18ZM14 18L14 19L15 19L15 18ZM31 18L31 19L32 19L32 18ZM34 18L34 19L35 19L35 18ZM0 19L0 20L1 20L1 19ZM24 19L24 20L25 20L25 19ZM21 20L21 21L20 21L20 22L19 22L19 25L20 25L20 24L22 24L22 23L23 23L23 22L22 22L22 20ZM41 20L41 21L42 21L42 20ZM8 21L8 22L9 22L9 21ZM20 22L20 23L22 23L22 22ZM31 22L31 23L32 23L32 22ZM34 22L34 23L36 23L36 25L35 25L35 24L33 24L33 25L32 25L32 26L33 26L33 25L35 25L35 26L37 26L37 24L38 24L38 27L39 27L39 25L40 25L40 26L41 26L41 25L40 25L40 24L38 24L38 22ZM2 23L2 24L3 24L3 23ZM47 23L47 24L48 24L48 23ZM51 23L51 24L50 24L50 26L51 26L51 27L53 27L53 23ZM51 24L51 25L52 25L52 24ZM3 25L3 26L4 26L4 25ZM5 25L5 28L8 28L8 25ZM11 25L11 26L12 26L12 25ZM25 25L25 28L28 28L28 25ZM45 25L45 28L48 28L48 25ZM6 26L6 27L7 27L7 26ZM17 26L17 27L18 27L18 29L19 29L19 27L18 27L18 26ZM26 26L26 27L27 27L27 26ZM30 26L30 27L31 27L31 26ZM42 26L42 28L43 28L43 26ZM46 26L46 27L47 27L47 26ZM21 27L21 28L22 28L22 27ZM40 27L40 28L41 28L41 27ZM38 28L38 29L39 29L39 28ZM4 29L4 30L5 30L5 29ZM40 29L40 31L38 31L38 32L37 32L37 33L35 33L35 37L36 37L36 38L37 38L37 39L38 39L38 38L40 38L40 37L39 37L39 35L40 35L40 34L41 34L41 35L43 35L43 33L44 33L44 32L45 32L45 30L44 30L44 29L43 29L43 30L44 30L44 31L42 31L42 29ZM25 30L25 31L26 31L26 30ZM28 30L28 31L29 31L29 30ZM50 30L50 31L51 31L51 32L52 32L52 31L51 31L51 30ZM30 31L30 33L29 33L29 34L28 34L28 35L27 35L27 36L29 36L29 35L31 35L31 34L32 34L32 33L31 33L31 31ZM41 31L41 32L42 32L42 31ZM9 32L9 33L10 33L10 32ZM38 32L38 33L37 33L37 34L36 34L36 35L37 35L37 34L38 34L38 35L39 35L39 34L40 34L40 32ZM2 33L2 34L1 34L1 35L2 35L2 34L3 34L3 33ZM13 34L13 35L14 35L14 34ZM33 34L33 35L32 35L32 36L30 36L30 37L31 37L31 39L32 39L32 38L34 38L34 37L32 37L32 36L34 36L34 34ZM3 36L3 37L4 37L4 36ZM37 36L37 37L38 37L38 36ZM1 37L1 38L2 38L2 39L1 39L1 41L2 41L2 43L3 43L3 41L4 41L4 39L3 39L3 38L2 38L2 37ZM6 38L6 39L8 39L8 38ZM12 38L12 39L13 39L13 38ZM19 38L19 39L20 39L20 38ZM23 39L23 40L24 40L24 39ZM28 40L28 41L29 41L29 40ZM42 40L42 41L41 41L41 42L42 42L42 41L43 41L43 42L44 42L44 41L43 41L43 40ZM6 41L6 42L7 42L7 41ZM19 41L19 43L20 43L20 41ZM21 41L21 43L22 43L22 41ZM48 41L48 42L49 42L49 43L47 43L47 42L46 42L46 43L47 43L47 44L49 44L49 43L50 43L50 42L49 42L49 41ZM52 41L52 42L53 42L53 41ZM35 43L35 44L36 44L36 45L38 45L38 43L37 43L37 44L36 44L36 43ZM6 44L6 45L7 45L7 44ZM21 45L21 46L22 46L22 45ZM25 45L25 48L28 48L28 45ZM45 45L45 48L48 48L48 45ZM26 46L26 47L27 47L27 46ZM32 46L32 48L31 48L31 50L30 50L30 51L31 51L31 50L32 50L32 48L33 48L33 46ZM46 46L46 47L47 47L47 46ZM35 48L35 49L36 49L36 48ZM38 48L38 51L37 51L37 52L38 52L38 53L40 53L40 52L41 52L41 51L40 51L40 52L39 52L39 50L40 50L40 49L39 49L39 48ZM49 48L49 49L50 49L50 48ZM51 49L51 50L52 50L52 49ZM42 50L42 51L44 51L44 52L45 52L45 51L44 51L44 50ZM18 51L18 52L19 52L19 53L22 53L22 52L24 52L24 51L21 51L21 52L19 52L19 51ZM10 52L10 53L11 53L11 52ZM0 0L0 7L7 7L7 0ZM1 1L1 6L6 6L6 1ZM2 2L2 5L5 5L5 2ZM46 0L46 7L53 7L53 0ZM47 1L47 6L52 6L52 1ZM48 2L48 5L51 5L51 2ZM0 46L0 53L7 53L7 46ZM1 47L1 52L6 52L6 47ZM2 48L2 51L5 51L5 48Z" fill="#000000"/></g></g></svg>
