<?xml version="1.0" encoding="UTF-8"?>
<svg xmlns="http://www.w3.org/2000/svg" version="1.1" width="300" height="300" viewBox="0 0 300 300"><rect x="0" y="0" width="300" height="300" fill="#ffffff"/><g transform="scale(5.455)"><g transform="translate(1,1)"><path fill-rule="evenodd" d="M8 0L8 1L10 1L10 2L13 2L13 1L10 1L10 0ZM19 0L19 3L16 3L16 1L14 1L14 2L15 2L15 5L14 5L14 3L13 3L13 6L12 6L12 5L9 5L9 2L8 2L8 5L9 5L9 6L8 6L8 7L9 7L9 6L10 6L10 7L11 7L11 8L8 8L8 9L10 9L10 10L8 10L8 11L7 11L7 10L6 10L6 9L7 9L7 8L6 8L6 9L4 9L4 8L0 8L0 14L1 14L1 15L0 15L0 18L1 18L1 17L2 17L2 16L1 16L1 15L2 15L2 14L6 14L6 15L5 15L5 16L4 16L4 15L3 15L3 16L4 16L4 17L5 17L5 16L6 16L6 17L7 17L7 16L8 16L8 17L10 17L10 18L6 18L6 19L7 19L7 20L4 20L4 19L5 19L5 18L2 18L2 19L0 19L0 20L1 20L1 21L0 21L0 22L1 22L1 23L2 23L2 25L0 25L0 26L2 26L2 27L1 27L1 29L0 29L0 30L1 30L1 29L2 29L2 30L3 30L3 28L4 28L4 30L6 30L6 31L3 31L3 32L6 32L6 33L5 33L5 34L6 34L6 35L7 35L7 34L9 34L9 35L10 35L10 36L11 36L11 38L12 38L12 39L13 39L13 40L14 40L14 41L12 41L12 40L10 40L10 39L9 39L9 40L10 40L10 41L9 41L9 42L10 42L10 43L9 43L9 44L10 44L10 43L11 43L11 44L12 44L12 43L14 43L14 44L13 44L13 46L14 46L14 47L15 47L15 43L14 43L14 41L15 41L15 40L14 40L14 37L13 37L13 38L12 38L12 34L14 34L14 35L13 35L13 36L14 36L14 35L15 35L15 38L16 38L16 45L17 45L17 46L18 46L18 47L16 47L16 48L15 48L15 51L14 51L14 52L13 52L13 51L11 51L11 52L12 52L12 53L15 53L15 52L16 52L16 53L18 53L18 52L16 52L16 48L17 48L17 51L19 51L19 53L22 53L22 52L24 52L24 51L26 51L26 53L28 53L28 52L29 52L29 50L30 50L30 52L31 52L31 50L32 50L32 51L33 51L33 52L32 52L32 53L34 53L34 52L35 52L35 51L33 51L33 50L34 50L34 49L35 49L35 50L36 50L36 49L37 49L37 46L38 46L38 47L39 47L39 46L38 46L38 45L41 45L41 46L40 46L40 47L41 47L41 46L42 46L42 48L41 48L41 49L42 49L42 48L43 48L43 47L44 47L44 49L43 49L43 50L42 50L42 52L41 52L41 51L39 51L39 50L40 50L40 49L39 49L39 48L38 48L38 51L39 51L39 53L40 53L40 52L41 52L41 53L45 53L45 52L44 52L44 49L45 49L45 50L49 50L49 51L47 51L47 52L46 52L46 53L47 53L47 52L48 52L48 53L49 53L49 52L50 52L50 53L52 53L52 50L53 50L53 49L52 49L52 48L50 48L50 47L51 47L51 46L50 46L50 47L49 47L49 45L50 45L50 44L51 44L51 45L52 45L52 46L53 46L53 43L52 43L52 44L51 44L51 43L50 43L50 42L48 42L48 41L49 41L49 39L50 39L50 38L52 38L52 39L51 39L51 40L52 40L52 39L53 39L53 36L52 36L52 37L51 37L51 36L50 36L50 35L52 35L52 34L53 34L53 31L52 31L52 28L51 28L51 29L50 29L50 28L49 28L49 26L50 26L50 25L51 25L51 27L53 27L53 25L51 25L51 24L50 24L50 25L49 25L49 23L48 23L48 22L49 22L49 21L51 21L51 22L53 22L53 19L50 19L50 20L49 20L49 19L48 19L48 18L51 18L51 17L53 17L53 16L51 16L51 17L50 17L50 14L52 14L52 15L53 15L53 13L52 13L52 12L53 12L53 11L52 11L52 10L50 10L50 11L48 11L48 10L49 10L49 9L51 9L51 8L48 8L48 9L47 9L47 10L45 10L45 11L46 11L46 12L44 12L44 9L46 9L46 8L44 8L44 9L43 9L43 8L42 8L42 7L43 7L43 3L44 3L44 4L45 4L45 3L44 3L44 1L43 1L43 0L40 0L40 2L39 2L39 1L38 1L38 0L36 0L36 2L37 2L37 3L35 3L35 2L31 2L31 0L30 0L30 1L29 1L29 3L27 3L27 4L26 4L26 3L25 3L25 0L23 0L23 2L24 2L24 3L23 3L23 4L22 4L22 1L21 1L21 2L20 2L20 0ZM27 0L27 1L26 1L26 2L28 2L28 0ZM32 0L32 1L33 1L33 0ZM17 1L17 2L18 2L18 1ZM37 1L37 2L38 2L38 4L36 4L36 5L35 5L35 3L32 3L32 4L34 4L34 5L31 5L31 3L29 3L29 7L30 7L30 8L29 8L29 9L31 9L31 10L27 10L27 9L26 9L26 10L25 10L25 9L24 9L24 4L23 4L23 10L24 10L24 11L23 11L23 12L22 12L22 13L23 13L23 15L21 15L21 14L20 14L20 13L18 13L18 15L17 15L17 12L16 12L16 14L15 14L15 11L17 11L17 8L18 8L18 11L19 11L19 8L21 8L21 7L22 7L22 4L21 4L21 7L20 7L20 6L19 6L19 5L20 5L20 3L19 3L19 4L18 4L18 6L17 6L17 7L16 7L16 5L17 5L17 4L16 4L16 5L15 5L15 7L14 7L14 6L13 6L13 7L12 7L12 6L11 6L11 7L12 7L12 8L13 8L13 9L12 9L12 10L15 10L15 11L14 11L14 13L13 13L13 11L12 11L12 13L13 13L13 15L12 15L12 16L11 16L11 19L12 19L12 20L10 20L10 22L9 22L9 21L8 21L8 20L7 20L7 21L5 21L5 22L4 22L4 23L3 23L3 24L9 24L9 25L10 25L10 26L9 26L9 27L11 27L11 28L10 28L10 29L9 29L9 30L7 30L7 29L6 29L6 30L7 30L7 31L6 31L6 32L7 32L7 33L6 33L6 34L7 34L7 33L8 33L8 31L9 31L9 32L11 32L11 34L10 34L10 35L11 35L11 34L12 34L12 33L13 33L13 32L14 32L14 33L15 33L15 34L16 34L16 38L17 38L17 37L18 37L18 36L19 36L19 35L21 35L21 34L22 34L22 37L23 37L23 38L21 38L21 39L24 39L24 37L23 37L23 34L22 34L22 32L24 32L24 31L26 31L26 30L23 30L23 27L24 27L24 24L27 24L27 23L23 23L23 22L22 22L22 20L23 20L23 21L24 21L24 22L26 22L26 21L24 21L24 20L25 20L25 19L28 19L28 20L27 20L27 22L28 22L28 23L29 23L29 24L30 24L30 22L28 22L28 20L30 20L30 21L33 21L33 23L34 23L34 24L32 24L32 25L29 25L29 28L30 28L30 26L31 26L31 27L33 27L33 29L27 29L27 30L30 30L30 31L28 31L28 32L25 32L25 34L24 34L24 36L26 36L26 37L25 37L25 39L27 39L27 41L28 41L28 44L29 44L29 45L31 45L31 46L30 46L30 47L29 47L29 48L30 48L30 50L31 50L31 48L32 48L32 50L33 50L33 48L34 48L34 46L35 46L35 47L36 47L36 45L37 45L37 44L39 44L39 43L40 43L40 42L41 42L41 43L42 43L42 44L41 44L41 45L42 45L42 44L43 44L43 42L44 42L44 43L45 43L45 44L46 44L46 43L47 43L47 44L50 44L50 43L48 43L48 42L47 42L47 40L48 40L48 39L49 39L49 38L50 38L50 37L48 37L48 36L49 36L49 34L52 34L52 31L51 31L51 30L50 30L50 31L51 31L51 33L50 33L50 32L49 32L49 29L48 29L48 30L46 30L46 29L44 29L44 26L43 26L43 25L44 25L44 24L45 24L45 23L44 23L44 22L48 22L48 21L49 21L49 20L48 20L48 21L46 21L46 20L47 20L47 19L46 19L46 20L45 20L45 21L44 21L44 19L45 19L45 17L46 17L46 16L47 16L47 17L49 17L49 13L46 13L46 16L45 16L45 15L44 15L44 17L42 17L42 18L40 18L40 17L41 17L41 16L43 16L43 15L41 15L41 14L40 14L40 13L42 13L42 14L44 14L44 13L42 13L42 12L43 12L43 10L42 10L42 9L41 9L41 10L39 10L39 9L38 9L38 8L37 8L37 7L38 7L38 4L39 4L39 8L41 8L41 7L42 7L42 6L41 6L41 7L40 7L40 5L42 5L42 3L43 3L43 2L40 2L40 4L39 4L39 2L38 2L38 1ZM10 3L10 4L11 4L11 3ZM25 5L25 8L28 8L28 5ZM30 5L30 7L31 7L31 9L32 9L32 11L31 11L31 14L30 14L30 15L29 15L29 14L28 14L28 15L27 15L27 13L28 13L28 12L26 12L26 13L24 13L24 12L23 12L23 13L24 13L24 14L26 14L26 15L23 15L23 17L24 17L24 16L26 16L26 15L27 15L27 16L30 16L30 17L29 17L29 18L30 18L30 17L33 17L33 21L34 21L34 20L35 20L35 19L36 19L36 20L37 20L37 21L39 21L39 23L42 23L42 22L43 22L43 21L42 21L42 22L40 22L40 21L41 21L41 20L42 20L42 19L44 19L44 18L42 18L42 19L40 19L40 18L38 18L38 17L40 17L40 15L39 15L39 13L40 13L40 12L39 12L39 13L38 13L38 15L37 15L37 12L38 12L38 11L37 11L37 10L35 10L35 11L36 11L36 13L35 13L35 12L34 12L34 13L33 13L33 14L34 14L34 13L35 13L35 14L36 14L36 15L35 15L35 16L34 16L34 17L33 17L33 15L32 15L32 12L33 12L33 11L34 11L34 10L33 10L33 9L32 9L32 7L33 7L33 8L35 8L35 9L36 9L36 7L37 7L37 6L36 6L36 7L35 7L35 6L34 6L34 7L33 7L33 6L32 6L32 7L31 7L31 5ZM18 6L18 7L19 7L19 6ZM26 6L26 7L27 7L27 6ZM44 6L44 7L45 7L45 6ZM15 7L15 8L16 8L16 7ZM52 8L52 9L53 9L53 8ZM15 9L15 10L16 10L16 9ZM20 9L20 12L21 12L21 9ZM1 10L1 14L2 14L2 13L3 13L3 12L7 12L7 11L5 11L5 10L4 10L4 11L2 11L2 10ZM10 10L10 11L8 11L8 12L10 12L10 13L6 13L6 14L7 14L7 15L6 15L6 16L7 16L7 15L10 15L10 14L11 14L11 10ZM41 10L41 11L42 11L42 10ZM29 11L29 13L30 13L30 11ZM50 11L50 12L51 12L51 11ZM14 15L14 18L13 18L13 16L12 16L12 18L13 18L13 22L16 22L16 21L18 21L18 22L17 22L17 23L16 23L16 24L15 24L15 25L14 25L14 23L12 23L12 21L11 21L11 23L10 23L10 25L11 25L11 27L12 27L12 26L13 26L13 27L14 27L14 29L13 29L13 28L12 28L12 29L11 29L11 30L9 30L9 31L11 31L11 30L12 30L12 32L13 32L13 30L14 30L14 31L15 31L15 33L18 33L18 34L17 34L17 35L18 35L18 34L20 34L20 33L18 33L18 31L19 31L19 32L21 32L21 31L20 31L20 30L19 30L19 29L20 29L20 26L23 26L23 25L21 25L21 24L23 24L23 23L21 23L21 22L20 22L20 21L21 21L21 20L22 20L22 18L21 18L21 20L19 20L19 19L20 19L20 18L19 18L19 17L18 17L18 16L20 16L20 15L18 15L18 16L17 16L17 15ZM16 16L16 17L17 17L17 16ZM21 16L21 17L22 17L22 16ZM35 16L35 17L36 17L36 19L37 19L37 20L39 20L39 21L40 21L40 20L39 20L39 19L37 19L37 16ZM26 17L26 18L28 18L28 17ZM14 18L14 19L15 19L15 20L14 20L14 21L16 21L16 18ZM31 18L31 20L32 20L32 18ZM34 18L34 19L35 19L35 18ZM2 19L2 21L1 21L1 22L3 22L3 21L4 21L4 20L3 20L3 19ZM17 19L17 20L18 20L18 21L19 21L19 20L18 20L18 19ZM51 20L51 21L52 21L52 20ZM35 21L35 22L34 22L34 23L36 23L36 25L35 25L35 24L34 24L34 25L35 25L35 26L34 26L34 29L33 29L33 31L34 31L34 32L35 32L35 30L36 30L36 32L37 32L37 33L35 33L35 36L34 36L34 34L33 34L33 35L31 35L31 34L32 34L32 33L31 33L31 31L30 31L30 33L26 33L26 36L29 36L29 35L30 35L30 36L31 36L31 37L32 37L32 38L30 38L30 37L29 37L29 38L30 38L30 39L29 39L29 40L28 40L28 41L29 41L29 44L30 44L30 41L31 41L31 44L33 44L33 45L32 45L32 46L33 46L33 45L36 45L36 44L37 44L37 43L39 43L39 42L38 42L38 41L36 41L36 39L35 39L35 41L33 41L33 40L34 40L34 39L32 39L32 38L34 38L34 37L37 37L37 36L38 36L38 34L37 34L37 33L38 33L38 32L40 32L40 34L39 34L39 35L40 35L40 34L41 34L41 35L43 35L43 36L41 36L41 37L40 37L40 38L39 38L39 37L38 37L38 38L37 38L37 39L38 39L38 38L39 38L39 41L40 41L40 40L42 40L42 41L41 41L41 42L42 42L42 41L43 41L43 40L44 40L44 41L45 41L45 40L47 40L47 38L46 38L46 37L47 37L47 36L48 36L48 35L47 35L47 36L46 36L46 34L45 34L45 35L43 35L43 33L44 33L44 32L45 32L45 33L47 33L47 34L49 34L49 32L48 32L48 31L46 31L46 32L45 32L45 30L44 30L44 29L43 29L43 28L41 28L41 27L39 27L39 25L40 25L40 26L41 26L41 25L40 25L40 24L38 24L38 22L37 22L37 23L36 23L36 21ZM6 22L6 23L7 23L7 22ZM19 22L19 25L20 25L20 24L21 24L21 23L20 23L20 22ZM31 22L31 23L32 23L32 22ZM11 23L11 24L12 24L12 23ZM17 23L17 24L16 24L16 26L15 26L15 28L16 28L16 29L17 29L17 31L18 31L18 29L19 29L19 27L18 27L18 26L17 26L17 25L18 25L18 23ZM43 23L43 24L44 24L44 23ZM47 23L47 24L48 24L48 23ZM37 24L37 26L35 26L35 27L36 27L36 28L35 28L35 29L38 29L38 30L39 30L39 29L38 29L38 28L39 28L39 27L38 27L38 24ZM2 25L2 26L3 26L3 25ZM5 25L5 28L8 28L8 25ZM13 25L13 26L14 26L14 25ZM25 25L25 28L28 28L28 25ZM32 25L32 26L33 26L33 25ZM45 25L45 28L48 28L48 25ZM6 26L6 27L7 27L7 26ZM16 26L16 27L17 27L17 29L18 29L18 27L17 27L17 26ZM26 26L26 27L27 27L27 26ZM42 26L42 27L43 27L43 26ZM46 26L46 27L47 27L47 26ZM2 27L2 28L3 28L3 27ZM21 27L21 28L22 28L22 27ZM40 28L40 29L41 29L41 28ZM12 29L12 30L13 30L13 29ZM21 29L21 30L22 30L22 29ZM42 29L42 30L40 30L40 31L41 31L41 32L42 32L42 30L43 30L43 31L44 31L44 30L43 30L43 29ZM15 30L15 31L16 31L16 30ZM1 31L1 32L0 32L0 33L1 33L1 32L2 32L2 31ZM37 31L37 32L38 32L38 31ZM3 33L3 35L4 35L4 33ZM0 34L0 38L1 38L1 39L0 39L0 40L1 40L1 39L2 39L2 38L3 38L3 40L2 40L2 41L4 41L4 42L3 42L3 43L2 43L2 42L0 42L0 43L1 43L1 44L3 44L3 45L4 45L4 44L3 44L3 43L7 43L7 44L6 44L6 45L8 45L8 46L9 46L9 47L10 47L10 48L9 48L9 49L8 49L8 53L10 53L10 52L9 52L9 51L10 51L10 50L14 50L14 48L13 48L13 49L10 49L10 48L11 48L11 47L10 47L10 46L12 46L12 45L8 45L8 43L7 43L7 42L8 42L8 40L6 40L6 41L7 41L7 42L5 42L5 41L4 41L4 40L5 40L5 38L6 38L6 39L7 39L7 38L6 38L6 37L9 37L9 36L5 36L5 37L4 37L4 36L3 36L3 37L2 37L2 38L1 38L1 36L2 36L2 35L1 35L1 34ZM27 34L27 35L28 35L28 34ZM36 34L36 35L37 35L37 34ZM32 36L32 37L34 37L34 36ZM43 36L43 37L41 37L41 38L44 38L44 40L45 40L45 38L44 38L44 37L45 37L45 36ZM19 38L19 39L20 39L20 38ZM31 39L31 40L32 40L32 39ZM42 39L42 40L43 40L43 39ZM17 40L17 42L18 42L18 43L17 43L17 45L18 45L18 46L19 46L19 47L20 47L20 48L19 48L19 49L18 49L18 50L19 50L19 51L20 51L20 52L21 52L21 51L24 51L24 48L22 48L22 47L24 47L24 46L23 46L23 45L24 45L24 44L23 44L23 45L22 45L22 43L24 43L24 42L25 42L25 43L27 43L27 42L25 42L25 40L24 40L24 41L23 41L23 40L21 40L21 41L20 41L20 40ZM29 40L29 41L30 41L30 40ZM11 41L11 42L12 42L12 41ZM19 41L19 43L20 43L20 44L19 44L19 46L20 46L20 45L21 45L21 46L22 46L22 45L21 45L21 43L22 43L22 42L21 42L21 43L20 43L20 41ZM52 41L52 42L53 42L53 41ZM32 42L32 43L34 43L34 42ZM25 45L25 48L28 48L28 45ZM45 45L45 48L48 48L48 45ZM26 46L26 47L27 47L27 46ZM46 46L46 47L47 47L47 46ZM32 47L32 48L33 48L33 47ZM21 48L21 49L19 49L19 50L20 50L20 51L21 51L21 50L23 50L23 49L22 49L22 48ZM35 48L35 49L36 49L36 48ZM49 48L49 50L52 50L52 49L50 49L50 48ZM9 49L9 50L10 50L10 49ZM27 49L27 51L28 51L28 50L29 50L29 49ZM50 51L50 52L51 52L51 51ZM37 52L37 53L38 53L38 52ZM0 0L0 7L7 7L7 0ZM1 1L1 6L6 6L6 1ZM2 2L2 5L5 5L5 2ZM46 0L46 7L53 7L53 0ZM47 1L47 6L52 6L52 1ZM48 2L48 5L51 5L51 2ZM0 46L0 53L7 53L7 46ZM1 47L1 52L6 52L6 47ZM2 48L2 51L5 51L5 48Z" fill="#000000"/></g></g></svg>
